<?xml version="1.0" encoding="utf-8"?><svg xmlns="http://www.w3.org/2000/svg" xmlns:xlink="http://www.w3.org/1999/xlink"><symbol viewBox="0 0 65 65" id="icon__car" xmlns="http://www.w3.org/2000/svg">
    <path d="M61.3252 32.04H56.2237V23.4487C56.2237 22.9214 55.7958 22.4935 55.2685 22.4935H39.3545V13.9251C39.3545 13.3978 38.9265 12.9699 38.3992 12.9699H3.27884C2.75155 12.9699 2.32361 13.3978 2.32361 13.9251V46.0875C2.32361 46.6148 2.75155 47.0427 3.27884 47.0427H11.4969C11.8255 49.5715 13.9888 51.5336 16.6061 51.5336C19.2196 51.5336 21.3803 49.5722 21.7083 47.0427H38.3999H44.7591C45.0871 49.5715 47.2484 51.5336 49.8632 51.5336C52.4805 51.5336 54.6431 49.5722 54.9717 47.0427H61.3259C61.8532 47.0427 62.2811 46.6148 62.2811 46.0875V32.9946C62.2805 32.4673 61.8525 32.04 61.3252 32.04ZM16.6055 49.6231C14.8148 49.6231 13.3584 48.1667 13.3584 46.3766C13.3584 44.5859 14.8148 43.1295 16.6055 43.1295C18.3918 43.1295 19.845 44.5859 19.845 46.3766C19.845 48.1667 18.3918 49.6231 16.6055 49.6231ZM16.6055 41.2197C14.1913 41.2197 12.165 42.8888 11.6065 45.1329H4.23406V14.8804H37.444V23.4481V32.9946V45.1323H21.5975C21.0396 42.8888 19.0158 41.2197 16.6055 41.2197ZM49.8626 49.6231C48.075 49.6231 46.6205 48.1667 46.6205 46.3766C46.6205 44.5859 48.075 43.1295 49.8626 43.1295C51.6526 43.1295 53.109 44.5859 53.109 46.3766C53.1084 48.1667 51.652 49.6231 49.8626 49.6231ZM60.37 45.1323H54.8609C54.3018 42.8888 52.2761 41.2191 49.8626 41.2191C47.4509 41.2191 45.4265 42.8882 44.868 45.1323H39.3545V32.9946V24.4033H54.3133V32.9946C54.3133 33.5219 54.7412 33.9498 55.2685 33.9498H60.37V45.1323Z"/>
</symbol><symbol viewBox="0 0 61 60" id="icon__cart" xmlns="http://www.w3.org/2000/svg">
    <path d="M56.7965 10.9808C56.6267 10.7823 56.3779 10.6681 56.1161 10.6681H13.7986L12.0731 4.88533C11.9589 4.50508 11.6098 4.245 11.2134 4.245H4.59532C4.09967 4.245 3.69849 4.64618 3.69849 5.14183C3.69849 5.63748 4.09967 6.03866 4.59532 6.03866H10.5449L21.4468 42.5721C21.448 42.5763 21.4516 42.5799 21.4528 42.5841L22.807 47.1902C21.9521 48.0398 21.4223 49.2159 21.4223 50.5127C21.4223 53.1015 23.5275 55.2079 26.1146 55.2079C28.6185 55.2079 30.6639 53.2301 30.7901 50.753H42.544C42.5434 50.7859 42.5392 50.8182 42.5392 50.8517C42.5392 53.4381 44.6432 55.5427 47.229 55.5427C49.8149 55.5427 51.9195 53.4381 51.9195 50.8517C51.9195 48.2652 49.8149 46.1606 47.229 46.1606C45.3164 46.1606 43.6704 47.3134 42.9416 48.9594H30.5342C30.3046 48.3047 29.9345 47.7026 29.4293 47.1974C28.5438 46.3119 27.3671 45.8234 26.1164 45.8234C26.1158 45.8234 26.1152 45.8234 26.1152 45.8234C25.4999 45.8234 24.9134 45.9454 24.3747 46.1618L23.5078 43.2124H51.4131C51.8561 43.2124 52.2328 42.889 52.2991 42.4513L57.0027 11.7001C57.0422 11.4418 56.9669 11.1793 56.7965 10.9808ZM47.229 47.9549C48.826 47.9549 50.1258 49.2547 50.1258 50.8523C50.1258 52.4498 48.826 53.7496 47.229 53.7496C45.6321 53.7496 44.3328 52.4498 44.3328 50.8523C44.3328 49.2547 45.6321 47.9549 47.229 47.9549ZM26.1152 47.6177H26.1158C26.8876 47.6177 27.6135 47.919 28.1599 48.4661C28.707 49.0132 29.0077 49.7408 29.0077 50.5139C29.0077 52.1138 27.7097 53.4154 26.114 53.4154C24.5158 53.4154 23.2154 52.1138 23.2154 50.5139C23.216 48.9169 24.5164 47.6177 26.1152 47.6177ZM50.6424 41.4194H22.9798L21.2842 35.6509C21.2627 35.578 21.2304 35.5116 21.1933 35.4488L14.3337 12.4618H55.0715L50.6424 41.4194Z"/>
</symbol><symbol viewBox="0 -960 960 960" id="icon__clear" xmlns="http://www.w3.org/2000/svg">
    <path d="m256-200-56-56 224-224-224-224 56-56 224 224 224-224 56 56-224 224 224 224-56 56-224-224-224 224Z"/>
</symbol><symbol viewBox="0 0 65 65" id="icon__house" xmlns="http://www.w3.org/2000/svg">
    <path d="M56.4641 20.8716L33.0186 3.76272C32.8552 3.6423 32.6576 3.57733 32.4546 3.57733C32.2517 3.57733 32.054 3.6423 31.8906 3.76272L9.07877 20.8716C8.96072 20.9602 8.86491 21.075 8.79892 21.207C8.73292 21.3389 8.69857 21.4845 8.69857 21.632V54.5825C8.69773 54.7079 8.7217 54.8322 8.76909 54.9482C8.81649 55.0643 8.88637 55.1698 8.97471 55.2587C9.06306 55.3477 9.16812 55.4182 9.28386 55.4664C9.39959 55.5146 9.52371 55.5394 9.64906 55.5394H55.9065C56.1586 55.5394 56.4003 55.4392 56.5786 55.261C56.7568 55.0827 56.857 54.8409 56.857 54.5889V21.6384C56.8565 21.4887 56.8207 21.3412 56.7524 21.2079C56.6841 21.0747 56.5854 20.9595 56.4641 20.8716ZM47.9857 41.5988H37.8471V32.0938H47.9857V41.5988ZM35.9461 53.6384H26.4411V43.4998H35.9461V53.6384ZM37.8471 43.4998H47.9857V53.6384H37.8471V43.4998ZM47.9857 30.1928H36.8966C36.6445 30.1928 36.4027 30.293 36.2245 30.4712C36.0462 30.6495 35.9461 30.8912 35.9461 31.1433V41.5988H25.4906C25.2386 41.5988 24.9968 41.6989 24.8185 41.8772C24.6403 42.0554 24.5402 42.2972 24.5402 42.5493V53.6384H18.2035V25.7572H47.9857V30.1928ZM54.956 53.6384H49.8867V24.8067C49.8867 24.5546 49.7865 24.3128 49.6083 24.1346C49.43 23.9563 49.1883 23.8562 48.9362 23.8562H17.253C17.0009 23.8562 16.7592 23.9563 16.5809 24.1346C16.4027 24.3128 16.3025 24.5546 16.3025 24.8067V53.6384H10.5996V22.1136L32.4673 5.7144L54.956 22.1199V53.6384Z"/>
</symbol><symbol viewBox="0 0 34 33" id="icon__location" xmlns="http://www.w3.org/2000/svg">
    <g clip-path="url(#fclip0_2_448)">
        <path d="M30.8122 15.9178V6.29211C30.8122 5.98775 30.6103 5.71996 30.3171 5.63606L20.7648 2.90785C20.6405 2.87287 20.5113 2.87338 20.3904 2.90785L11.0253 5.58261L1.66021 2.90785C1.455 2.84991 1.2324 2.89052 1.06187 3.01911C0.891269 3.14833 0.790649 3.35013 0.790649 3.56396V24.0254C0.790649 24.3298 0.992528 24.5976 1.28575 24.6815L10.8381 27.4097C10.8993 27.427 10.9627 27.4357 11.0253 27.4357C11.0887 27.4357 11.1517 27.427 11.2125 27.4097L20.5776 24.7349L24.831 25.9496C26.0159 27.8837 27.2852 29.5624 27.5413 29.8967C27.6706 30.0652 27.8705 30.1638 28.083 30.1638C28.2956 30.1638 28.4955 30.0652 28.6248 29.8967C29.1278 29.24 33.5415 23.4026 33.5415 20.6151C33.5415 18.6047 32.4358 16.8644 30.8122 15.9178ZM10.343 25.8491L2.15525 23.5112V4.46848L10.343 6.8064V25.8491ZM19.8953 23.5107L11.7076 25.8492V6.80684L19.8953 4.46835V23.5107ZM21.2599 23.5112V4.46848L29.4476 6.8064V15.3526C29.0089 15.2386 28.557 15.1588 28.083 15.1588C25.0733 15.1588 22.6246 17.6066 22.6246 20.6152C22.6246 21.5776 23.1552 22.9041 23.8648 24.2549L21.2599 23.5112ZM28.083 28.3402C26.5831 26.2774 23.9892 22.3516 23.9892 20.6151C23.9892 18.3585 25.8255 16.5229 28.083 16.5229C30.3405 16.5229 32.1769 18.3585 32.1769 20.6151C32.1769 22.3516 29.5829 26.2774 28.083 28.3402Z" fill-opacity="0.4"/>
        <path d="M28.083 19.251C27.3308 19.251 26.7184 19.8632 26.7184 20.6151C26.7184 21.3671 27.3308 21.9792 28.083 21.9792C28.8353 21.9792 29.4476 21.3671 29.4476 20.6151C29.4476 19.8631 28.8353 19.251 28.083 19.251ZM28.0837 20.6151C28.0837 20.6151 28.083 20.6145 28.083 20.6138L28.7653 20.6151H28.0837Z" fill-opacity="0.4"/>
    </g>
    <defs>
        <clipPath id="fclip0_2_448">
            <rect width="32.7508" height="32.7384" transform="translate(0.790649 0.153656)"/>
        </clipPath>
    </defs>
</symbol><symbol viewBox="0 0 25 25" id="icon__location-footer" xmlns="http://www.w3.org/2000/svg">
    <g clip-path="url(#eclip0_2_508)">
        <path d="M12.4609 0.915039C7.8085 0.915039 4.02344 4.7001 4.02344 9.35254C4.02344 10.9244 4.45886 12.4585 5.28292 13.7894L11.9807 24.5826C12.109 24.7894 12.335 24.915 12.5781 24.915C12.58 24.915 12.5818 24.915 12.5837 24.915C12.8289 24.9131 13.0554 24.7836 13.1813 24.5732L19.7083 13.6754C20.4869 12.3726 20.8984 10.8778 20.8984 9.35254C20.8984 4.7001 17.1134 0.915039 12.4609 0.915039ZM18.5015 12.9534L12.5674 22.8613L6.47814 13.0484C5.79222 11.9407 5.42031 10.6627 5.42031 9.35254C5.42031 5.47551 8.58391 2.31191 12.4609 2.31191C16.338 2.31191 19.4969 5.47551 19.4969 9.35254C19.4969 10.6238 19.1495 11.8692 18.5015 12.9534Z" fill-opacity="0.4"/>
        <path d="M12.4609 5.13379C10.1347 5.13379 8.24219 7.02632 8.24219 9.35254C8.24219 11.6639 10.1039 13.5713 12.4609 13.5713C14.847 13.5713 16.6797 11.6385 16.6797 9.35254C16.6797 7.02632 14.7872 5.13379 12.4609 5.13379ZM12.4609 12.1744C10.902 12.1744 9.63906 10.9072 9.63906 9.35254C9.63906 7.80173 10.9101 6.53066 12.4609 6.53066C14.0118 6.53066 15.2781 7.80173 15.2781 9.35254C15.2781 10.8846 14.0446 12.1744 12.4609 12.1744Z" fill-opacity="0.4"/>
    </g>
    <defs>
        <clipPath id="eclip0_2_508">
            <rect width="24" height="24" transform="translate(0.460938 0.915039)"/>
        </clipPath>
    </defs>
</symbol><symbol viewBox="0 0 65 65" id="icon__puzzle" xmlns="http://www.w3.org/2000/svg">
    <path d="M56.1689 29.7184C56.4807 29.2917 56.3876 28.6935 55.961 28.3817L46.0797 21.1585L46.0382 21.1273C45.5223 20.2408 45.3629 19.4468 45.6352 19.0756C45.8877 18.7306 46.6326 18.6279 47.5625 18.8052C47.6594 18.8486 47.7659 18.876 47.8781 18.8843C49.1504 18.98 50.1677 18.6018 50.7442 17.818C51.4272 16.885 51.373 15.5725 50.5924 14.1222C49.9298 12.8927 48.7895 11.6484 47.3813 10.6191C45.2965 9.09486 42.9777 8.31043 41.3259 8.56617C40.5376 8.68925 39.9069 9.04703 39.5064 9.59677C39.016 10.2626 38.9056 11.1573 39.1824 12.1459C39.1716 12.3391 39.2201 12.533 39.324 12.702C39.9088 13.649 40.1021 14.5132 39.8144 14.9054C39.5619 15.2511 38.8195 15.3518 37.8974 15.1758L27.8547 7.83531C27.65 7.68544 27.3943 7.6223 27.143 7.66248C26.8924 7.70138 26.6672 7.8385 26.518 8.04321L19.0589 18.2504C18.9817 18.3562 18.9269 18.4761 18.8982 18.6037C18.483 20.4372 18.8351 21.9213 19.8676 22.6764C20.902 23.4289 22.4109 23.3141 24.0295 22.3683C24.0308 22.3677 24.0321 22.3677 24.0333 22.3671C24.5435 22.1732 24.974 22.1496 25.187 22.3077C25.4753 22.5182 25.5639 23.1738 25.4128 23.978C25.21 25.0596 24.6041 26.3492 23.7508 27.5156C22.3688 29.4078 20.8 30.4027 19.858 30.5494C19.6648 30.5793 19.3988 30.5889 19.2298 30.4652C19.0245 30.3147 18.9173 29.9435 18.9307 29.4365C19.3376 27.596 18.9913 26.1661 17.9518 25.4053C16.8784 24.6247 15.2975 24.7758 13.6144 25.8173C13.5092 25.8823 13.4174 25.9665 13.3447 26.0666L5.97485 36.1526C5.66363 36.5793 5.75674 37.1775 6.18276 37.4894L16.3918 44.951C16.4977 45.0282 16.6182 45.083 16.7464 45.1124C18.6074 45.5288 20.0538 45.1863 20.8159 44.1436C21.5557 43.1347 21.4619 41.666 20.5678 40.0818C20.5583 40.0404 20.5461 39.9983 20.5315 39.9574C20.351 39.4664 20.335 39.0646 20.4887 38.8548C20.9384 38.2387 23.2451 38.4983 25.6972 40.2897C28.1462 42.0818 29.0913 44.1997 28.6436 44.812C28.5014 45.0052 28.1679 45.1111 27.7112 45.113C27.6794 45.1015 27.6462 45.0926 27.613 45.0849C25.7827 44.6742 24.2974 45.0275 23.5423 46.0588C22.7547 47.1423 22.9007 48.6818 23.9549 50.3948C24.02 50.5007 24.1048 50.5932 24.2055 50.6659L34.2903 58.0351C34.4605 58.1594 34.6576 58.2194 34.854 58.2194C35.1487 58.2194 35.4395 58.0835 35.627 57.8272L42.9171 47.8553C43.8029 47.3413 44.5963 47.1825 44.9649 47.4529C45.2768 47.6812 45.5848 48.6372 45.3475 49.7871C45.3246 49.863 45.3099 49.942 45.3074 50.023C45.2372 51.5747 45.852 52.3617 46.3839 52.7513C48.1479 54.0357 51.241 52.5906 53.579 49.3885C55.9227 46.1825 56.3621 42.7941 54.5981 41.5046C54.0841 41.1334 53.1804 40.7903 51.7958 41.2667C51.7295 41.2897 51.6651 41.3197 51.6045 41.3573C50.5535 42.0072 49.5095 41.907 49.1377 41.6366C48.792 41.3834 48.6894 40.6405 48.8635 39.7151L56.1689 29.7184ZM48.0082 43.1819C49.1383 44.0052 50.9738 43.9466 52.5069 43.0461C52.7914 42.9587 53.2231 42.8732 53.4725 43.0524C54.0873 43.5014 53.8264 45.8075 52.0337 48.2603C50.2448 50.708 48.1294 51.6569 47.5114 51.2067C47.3125 51.0606 47.2059 50.6978 47.2149 50.2029C47.5899 48.4293 47.1345 46.671 46.0956 45.9102C45.0261 45.127 43.4439 45.2763 41.7545 46.3222C41.6499 46.3872 41.5587 46.4714 41.486 46.5715L34.6461 55.9273L25.4912 49.2373C24.9791 48.3489 24.821 47.5549 25.0875 47.1882C25.3363 46.8477 26.0582 46.7425 26.9606 46.9064C27.076 46.9676 27.2055 47.0052 27.3433 47.0148C28.6028 47.1009 29.6149 46.722 30.187 45.9453C31.474 44.1851 30.0295 41.0907 26.826 38.7464C23.6194 36.4058 20.2311 35.9664 18.9435 37.7272C18.4486 38.4045 18.3421 39.3133 18.6342 40.312C18.6342 40.4868 18.6833 40.6609 18.777 40.8127C19.3625 41.761 19.5576 42.6258 19.2719 43.0148C19.0194 43.3598 18.277 43.4606 17.3542 43.2859L8.08389 36.5091L14.7745 27.3511C15.6591 26.8389 16.4524 26.6808 16.8236 26.9506C17.1801 27.2114 17.2764 27.9926 17.0761 28.9563C17.0474 29.0392 17.0296 29.1266 17.0245 29.2158C16.9327 30.8064 17.5576 31.6119 18.0985 32.0085C18.652 32.4135 19.3618 32.5634 20.1514 32.4397C21.8025 32.1833 23.7738 30.7286 25.2955 28.6444C26.3261 27.2356 27.0359 25.7044 27.2935 24.3313C27.5977 22.7127 27.2502 21.4455 26.3209 20.7669C25.6105 20.2408 24.6373 20.1502 23.562 20.5048C23.4345 20.5233 23.3095 20.5673 23.1953 20.6381C22.2496 21.2223 21.3854 21.4143 20.9958 21.1311C20.6501 20.8779 20.5487 20.1362 20.726 19.2134L27.4989 9.94498L36.9356 16.8422C37.0409 16.9194 37.1614 16.9742 37.289 17.0029C39.1486 17.4245 40.597 17.0795 41.3597 16.0348C42.0925 15.0349 42.0108 13.5878 41.1448 12.024C41.1346 11.966 41.1193 11.908 41.0989 11.8512C40.9126 11.3487 40.8948 10.9405 41.051 10.7275C41.1748 10.5579 41.4299 10.4871 41.6225 10.4571C42.5644 10.311 44.361 10.7811 46.2544 12.1643C47.4196 13.0157 48.3877 14.061 48.9094 15.0304C49.2978 15.7504 49.4126 16.4016 49.204 16.6866C49.0535 16.8913 48.6811 16.9959 48.2021 16.9864C48.1887 16.9825 48.174 16.9794 48.1607 16.9762C46.2972 16.561 44.8527 16.9066 44.0925 17.9475C43.308 19.0176 43.4579 20.5992 44.5044 22.2867C44.5676 22.3887 44.6492 22.4774 44.7455 22.5494L54.0611 29.3625L47.1951 38.754C47.1173 38.8599 47.0625 38.981 47.0338 39.1099C46.6179 40.9708 46.9636 42.4166 48.0082 43.1819Z"/>
</symbol></svg>