<?xml version="1.0" encoding="utf-8"?><svg xmlns="http://www.w3.org/2000/svg" xmlns:xlink="http://www.w3.org/1999/xlink"><symbol viewBox="0 -960 960 960" id="icon__clear" xmlns="http://www.w3.org/2000/svg">
    <path d="m256-200-56-56 224-224-224-224 56-56 224 224 224-224 56 56-224 224 224 224-56 56-224-224-224 224Z"/>
</symbol><symbol viewBox="0 0 34 33" id="icon__location" xmlns="http://www.w3.org/2000/svg">
    <g clip-path="url(#bclip0_2_448)">
        <path d="M30.8122 15.9178V6.29211C30.8122 5.98775 30.6103 5.71996 30.3171 5.63606L20.7648 2.90785C20.6405 2.87287 20.5113 2.87338 20.3904 2.90785L11.0253 5.58261L1.66021 2.90785C1.455 2.84991 1.2324 2.89052 1.06187 3.01911C0.891269 3.14833 0.790649 3.35013 0.790649 3.56396V24.0254C0.790649 24.3298 0.992528 24.5976 1.28575 24.6815L10.8381 27.4097C10.8993 27.427 10.9627 27.4357 11.0253 27.4357C11.0887 27.4357 11.1517 27.427 11.2125 27.4097L20.5776 24.7349L24.831 25.9496C26.0159 27.8837 27.2852 29.5624 27.5413 29.8967C27.6706 30.0652 27.8705 30.1638 28.083 30.1638C28.2956 30.1638 28.4955 30.0652 28.6248 29.8967C29.1278 29.24 33.5415 23.4026 33.5415 20.6151C33.5415 18.6047 32.4358 16.8644 30.8122 15.9178ZM10.343 25.8491L2.15525 23.5112V4.46848L10.343 6.8064V25.8491ZM19.8953 23.5107L11.7076 25.8492V6.80684L19.8953 4.46835V23.5107ZM21.2599 23.5112V4.46848L29.4476 6.8064V15.3526C29.0089 15.2386 28.557 15.1588 28.083 15.1588C25.0733 15.1588 22.6246 17.6066 22.6246 20.6152C22.6246 21.5776 23.1552 22.9041 23.8648 24.2549L21.2599 23.5112ZM28.083 28.3402C26.5831 26.2774 23.9892 22.3516 23.9892 20.6151C23.9892 18.3585 25.8255 16.5229 28.083 16.5229C30.3405 16.5229 32.1769 18.3585 32.1769 20.6151C32.1769 22.3516 29.5829 26.2774 28.083 28.3402Z" fill-opacity="0.4"/>
        <path d="M28.083 19.251C27.3308 19.251 26.7184 19.8632 26.7184 20.6151C26.7184 21.3671 27.3308 21.9792 28.083 21.9792C28.8353 21.9792 29.4476 21.3671 29.4476 20.6151C29.4476 19.8631 28.8353 19.251 28.083 19.251ZM28.0837 20.6151C28.0837 20.6151 28.083 20.6145 28.083 20.6138L28.7653 20.6151H28.0837Z" fill-opacity="0.4"/>
    </g>
    <defs>
        <clipPath id="bclip0_2_448">
            <rect width="32.7508" height="32.7384" transform="translate(0.790649 0.153656)"/>
        </clipPath>
    </defs>
</symbol><symbol viewBox="0 0 61 60" id="icon__test" xmlns="http://www.w3.org/2000/svg">
    <path d="M56.7965 10.9808C56.6267 10.7823 56.3779 10.6681 56.1161 10.6681H13.7986L12.0731 4.88533C11.9589 4.50508 11.6098 4.245 11.2134 4.245H4.59532C4.09967 4.245 3.69849 4.64618 3.69849 5.14183C3.69849 5.63748 4.09967 6.03866 4.59532 6.03866H10.5449L21.4468 42.5721C21.448 42.5763 21.4516 42.5799 21.4528 42.5841L22.807 47.1902C21.9521 48.0398 21.4223 49.2159 21.4223 50.5127C21.4223 53.1015 23.5275 55.2079 26.1146 55.2079C28.6185 55.2079 30.6639 53.2301 30.7901 50.753H42.544C42.5434 50.7859 42.5392 50.8182 42.5392 50.8517C42.5392 53.4381 44.6432 55.5427 47.229 55.5427C49.8149 55.5427 51.9195 53.4381 51.9195 50.8517C51.9195 48.2652 49.8149 46.1606 47.229 46.1606C45.3164 46.1606 43.6704 47.3134 42.9416 48.9594H30.5342C30.3046 48.3047 29.9345 47.7026 29.4293 47.1974C28.5438 46.3119 27.3671 45.8234 26.1164 45.8234C26.1158 45.8234 26.1152 45.8234 26.1152 45.8234C25.4999 45.8234 24.9134 45.9454 24.3747 46.1618L23.5078 43.2124H51.4131C51.8561 43.2124 52.2328 42.889 52.2991 42.4513L57.0027 11.7001C57.0422 11.4418 56.9669 11.1793 56.7965 10.9808ZM47.229 47.9549C48.826 47.9549 50.1258 49.2547 50.1258 50.8523C50.1258 52.4498 48.826 53.7496 47.229 53.7496C45.6321 53.7496 44.3328 52.4498 44.3328 50.8523C44.3328 49.2547 45.6321 47.9549 47.229 47.9549ZM26.1152 47.6177H26.1158C26.8876 47.6177 27.6135 47.919 28.1599 48.4661C28.707 49.0132 29.0077 49.7408 29.0077 50.5139C29.0077 52.1138 27.7097 53.4154 26.114 53.4154C24.5158 53.4154 23.2154 52.1138 23.2154 50.5139C23.216 48.9169 24.5164 47.6177 26.1152 47.6177ZM50.6424 41.4194H22.9798L21.2842 35.6509C21.2627 35.578 21.2304 35.5116 21.1933 35.4488L14.3337 12.4618H55.0715L50.6424 41.4194Z"/>
</symbol></svg>