<?xml version="1.0" encoding="utf-8"?><svg xmlns="http://www.w3.org/2000/svg" xmlns:xlink="http://www.w3.org/1999/xlink"><symbol viewBox="0 0 1488 626" id="icon__line" xmlns="http://www.w3.org/2000/svg">
    <path d="M243.01 308.072c135.461 23.191 120.257 121.553 95.722 167.834-48.457 168.607-68.826 342.441-72.954 408.283 28.594 542.161 359.928 23.376 363.825-56.782 3.118-64.126 133.168-49.754 197.804-34.552 634.033 57.74 441.833-230.988 328.013-321.954-113.82-90.966 90.76 27.2 92-406.323 1.24-433.524-251.29-443.256-365.098-210.687C768.515 86.459 610.405 9.454 376.461 53.931 142.516 98.41 73.683 279.084 243.01 308.073z" stroke-opacity=".8"/>
    <path d="M250.879 309.638c133.335 22.827 118.369 119.644 94.219 165.199-47.696 165.96-67.745 337.065-71.808 401.873 28.145 533.65 354.278 23.009 358.114-55.89 3.069-63.119 131.078-48.973 194.698-34.01C1450.18 843.644 1261 559.448 1148.97 469.91c-112.04-89.538 89.33 26.773 90.55-399.945 1.23-426.718-247.343-436.297-359.364-207.379-112.021 228.917-267.649 153.12-497.921 196.9S84.21 281.105 250.879 309.639z" stroke-opacity=".8"/>
    <path d="M260.388 311.529c130.766 22.387 116.088 117.339 92.404 162.016-46.777 162.761-66.44 330.57-70.425 394.129 27.603 523.366 347.451 22.566 351.214-54.813 3.009-61.903 128.551-48.029 190.946-33.354 612.053 55.738 426.523-222.982 316.643-310.794-109.88-87.813 87.61 26.257 88.81-392.238 1.2-418.495-242.579-427.89-352.441-203.383C767.677 97.598 615.048 23.262 389.213 66.198 163.378 109.134 96.931 283.545 260.388 311.53z" stroke-opacity=".8"/>
    <path d="M268.312 313.105c128.625 22.02 114.188 115.417 90.891 159.363-46.011 160.097-65.352 325.157-69.271 387.675 27.151 514.797 341.761 22.197 345.462-53.915 2.961-60.889 126.447-47.243 187.82-32.808 602.036 54.826 419.536-219.33 311.456-305.705-108.07-86.375 86.18 25.828 87.36-385.815 1.18-411.643-238.609-420.883-346.672-200.053-108.064 220.83-258.193 147.711-480.33 189.944-222.137 42.234-287.496 213.788-126.716 241.314z" stroke-opacity=".8"/>
    <path d="M275.784 314.591c126.606 21.675 112.395 113.606 89.464 156.861-45.288 157.584-64.326 320.053-68.184 381.59 26.725 506.718 336.397 21.848 340.04-53.069 2.914-59.933 124.461-46.501 184.871-32.293 592.585 53.965 412.955-215.887 306.575-300.906-106.39-85.019 84.82 25.422 85.98-379.759 1.16-405.18-234.863-414.276-341.23-196.912C766.933 107.467 619.16 35.495 400.51 77.066c-218.649 41.57-282.983 210.431-124.726 237.525z" stroke-opacity=".8"/>
    <path d="M284.813 316.386c124.166 21.258 110.23 111.417 87.74 153.839-44.416 154.547-63.086 313.886-66.87 374.237 26.21 496.948 329.915 21.427 333.487-52.047 2.858-58.778 122.063-45.605 181.309-31.671 581.161 52.926 404.991-211.726 300.661-295.107-104.33-83.38 83.19 24.932 84.33-372.44 1.14-397.373-230.338-406.294-334.655-193.119C766.498 113.253 621.573 42.67 407.136 83.438 192.7 124.207 129.606 289.815 284.813 316.386z" stroke-opacity=".8"/>
    <path d="M292.877 317.99c121.987 20.885 108.295 109.462 86.2 151.14-43.637 151.834-61.98 308.377-65.697 367.669 25.75 488.231 324.126 21.051 327.635-51.133 2.808-57.747 119.922-44.805 178.128-31.115 570.967 51.997 397.887-208.012 295.387-289.929-102.5-81.917 81.73 24.495 82.85-365.905 1.12-390.4-226.298-399.164-328.784-189.73C766.109 118.422 623.727 49.076 413.053 89.13c-210.674 40.053-272.66 202.755-120.176 228.86z" stroke-opacity=".8"/>
    <path d="M299.964 319.4c120.072 20.557 106.595 107.743 84.847 148.767-42.952 149.451-61.007 303.537-64.665 361.898 25.345 480.565 319.037 20.721 322.491-50.33 2.764-56.841 118.039-44.102 175.331-30.627 562.002 51.18 391.642-204.746 290.752-285.378-100.89-80.631 80.45 24.11 81.55-360.161 1.1-384.272-222.747-392.898-323.625-186.751C765.767 122.965 625.62 54.708 418.253 94.132 210.887 133.557 149.874 293.705 299.964 319.4z" stroke-opacity=".8"/>
    <path d="M308.527 321.103c117.758 20.161 104.54 105.667 83.212 145.9-42.124 146.572-59.831 297.688-63.419 354.925 24.857 471.312 312.889 20.321 316.277-49.361 2.71-55.745 115.764-43.252 171.952-30.037 551.171 50.195 384.091-200.8 285.151-279.878-98.95-79.078 78.89 23.646 79.97-353.221 1.08-376.867-218.448-385.327-317.382-183.152C765.354 128.453 627.907 61.51 424.537 100.175c-203.371 38.666-263.208 195.727-116.01 220.927z" stroke-opacity=".8"/>
    <path d="M315.662 322.522c115.831 19.83 102.829 103.936 81.85 143.511-41.434 144.171-58.851 292.813-62.381 349.113 24.45 463.594 307.766 19.988 311.099-48.553 2.666-54.833 113.869-42.543 169.137-29.545 542.143 49.373 377.803-197.513 280.473-275.295-97.322-77.783 77.61 23.258 78.67-347.438 1.06-370.695-214.872-379.017-312.186-180.153-97.314 198.864-232.51 133.018-432.551 171.05-200.04 38.032-258.898 192.522-114.111 217.31z" stroke-opacity=".8"/>
    <path d="M322.391 323.86c114.012 19.519 101.215 102.305 80.565 141.258-40.783 141.909-57.927 288.217-61.401 343.633 24.066 456.309 302.934 19.674 306.214-47.79 2.625-53.972 112.082-41.876 166.482-29.081 533.639 48.597 371.879-194.413 276.079-270.975-95.802-76.561 76.38 22.894 77.43-341.983 1.04-364.876-211.502-373.067-307.289-177.325-95.786 195.742-228.86 130.93-425.76 168.365-196.901 37.435-254.834 189.5-112.32 213.898z" stroke-opacity=".8"/>
    <path d="M330.522 325.478c111.815 19.143 99.265 100.334 79.013 138.537-39.998 139.173-56.812 282.662-60.219 337.01 23.603 447.515 297.097 19.296 300.314-46.869 2.574-52.932 109.922-41.069 163.274-28.521 523.356 47.661 364.706-190.666 270.756-265.752-93.953-75.087 74.91 22.452 75.94-335.393 1.02-357.846-207.426-365.879-301.367-173.909-93.94 191.97-224.45 128.407-417.556 165.121S190.754 301.55 330.522 325.478z" stroke-opacity=".8"/>
    <path d="M337.251 326.816c109.997 18.831 97.651 98.702 77.728 136.283-39.348 136.911-55.888 278.066-59.239 331.53 23.218 440.241 292.265 18.982 295.43-46.107 2.532-52.071 108.134-40.401 160.619-28.057 514.841 46.886 358.781-187.565 266.351-261.43-92.424-73.866 73.7 22.087 74.71-329.94 1-352.026-204.056-359.928-296.469-171.08-92.413 188.849-220.8 126.32-410.766 162.436-189.966 36.117-245.859 182.826-108.364 206.365z" stroke-opacity=".8"/>
    <path d="M343.642 328.087c108.269 18.536 96.117 97.153 76.507 134.144-38.73 134.762-55.01 273.701-58.309 326.326 22.854 433.333 287.678 18.684 290.793-45.383 2.492-51.254 106.436-39.767 158.097-27.617 506.76 46.15 353.15-184.621 262.17-257.327-90.973-72.705 72.54 21.741 73.53-324.759 1-346.5-200.846-354.279-291.808-168.395C763.66 150.96 637.288 89.412 450.304 124.962c-186.984 35.55-242 179.956-106.662 203.125z" stroke-opacity=".8"/>
    <path d="M351.363 329.623c106.184 18.179 94.265 95.281 75.033 131.559-37.983 132.164-53.95 268.427-57.185 320.038 22.413 424.98 282.134 18.323 285.189-44.509 2.444-50.266 104.385-39.001 155.051-27.084 496.999 45.26 346.339-181.064 257.119-252.369-89.221-71.305 71.14 21.322 72.11-318.501.98-339.824-196.974-347.452-286.183-165.15-89.21 182.302-213.146 121.94-396.527 156.805C272.59 165.276 218.634 306.9 351.363 329.623z" stroke-opacity=".8"/>
    <path d="M357.798 330.902c104.444 17.881 92.721 93.721 73.804 129.405-37.361 130.001-53.067 264.032-56.249 314.797 22.047 418.026 277.514 18.024 280.519-43.779 2.404-49.444 102.677-38.362 152.512-26.641 488.856 44.519 340.666-178.099 252.906-248.236-87.757-70.137 69.98 20.972 70.94-313.287.96-334.258-193.755-341.762-281.504-162.445-87.749 179.317-209.656 119.943-390.034 154.237s-233.45 173.598-102.894 195.949z" stroke-opacity=".8"/>
    <path d="M363.865 332.11c102.805 17.6 91.266 92.249 72.646 127.373-36.775 127.96-52.234 259.887-55.366 309.856 21.701 411.461 273.158 17.741 276.116-43.093 2.366-48.667 101.064-37.759 150.118-26.222 481.181 43.82 335.321-175.303 248.941-244.339-86.385-69.037 68.88 20.643 69.82-308.369.94-329.012-190.713-336.398-277.085-159.895-86.371 176.502-206.364 118.06-383.911 151.816C287.598 172.992 235.359 310.11 363.865 332.11z" stroke-opacity=".8"/>
    <path d="M371.197 333.568c100.824 17.261 89.507 90.471 71.246 124.919-36.066 125.493-51.227 254.878-54.299 303.884 21.282 403.529 267.894 17.399 270.795-42.262 2.321-47.729 99.117-37.032 147.225-25.717 471.916 42.976 328.856-171.925 244.146-239.631-84.722-67.706 67.55 20.245 68.47-302.426.93-322.672-187.036-329.915-271.742-156.815-84.707 173.101-202.388 115.786-376.513 148.891-174.125 33.105-225.358 167.58-99.328 189.157z" stroke-opacity=".8"/>
    <path d="M377.744 334.87c99.055 16.959 87.937 88.884 69.996 122.727-35.433 123.292-50.328 250.407-53.346 298.553 20.909 396.45 263.193 17.093 266.043-41.521 2.28-46.892 97.378-36.382 144.642-25.266 463.631 42.222 323.091-168.908 239.861-235.426-83.235-66.518 66.36 19.89 67.27-297.119.91-317.01-183.754-324.126-266.975-154.063-83.22 170.063-198.837 113.754-369.906 146.278-171.07 32.524-221.403 164.64-97.585 185.837z" stroke-opacity=".8"/>
    <path d="M383.499 336.015c97.5 16.692 86.556 87.489 68.897 120.8-34.877 121.357-49.538 246.476-52.509 293.866 20.581 390.229 259.062 16.825 261.867-40.869 2.244-46.155 95.849-35.811 142.371-24.869 456.355 41.559 318.015-166.257 236.095-231.731-81.927-65.473 65.32 19.578 66.22-292.455.89-312.033-180.875-319.038-262.789-151.644-81.914 167.394-195.715 111.968-364.099 143.982-168.385 32.013-217.928 162.055-96.053 182.92z" stroke-opacity=".8"/>
    <path d="M390.452 337.398c95.621 16.371 84.889 85.803 67.57 118.473-34.206 119.018-48.584 241.726-51.498 288.203 20.185 382.706 254.07 16.501 256.821-40.082 2.201-45.266 94.002-35.121 139.628-24.39 447.557 40.758 311.887-163.053 231.547-227.265-80.35-64.212 64.06 19.201 64.94-286.819.87-306.021-177.387-312.89-257.723-148.722-80.335 164.168-191.944 109.81-357.083 141.207-165.139 31.396-213.728 158.932-94.202 179.395z" stroke-opacity=".8"/>
    <path d="M396.247 338.55c94.055 16.102 83.498 84.398 66.463 116.533-33.645 117.068-47.788 237.767-50.654 283.483 19.854 376.444 249.909 16.231 252.615-39.425 2.165-44.525 92.463-34.546 137.342-23.991 440.227 40.091 306.777-160.382 227.747-223.543-79.026-63.161 63.02 18.886 63.88-282.123.87-301.01-174.477-307.767-253.498-146.287-79.02 161.48-188.801 108.012-351.236 138.895-162.435 30.882-210.228 156.33-92.659 176.458z" stroke-opacity=".8"/>
    <path d="M401.711 339.638c92.579 15.849 82.188 83.073 65.42 114.703-33.117 115.231-47.038 234.036-49.859 279.034 19.542 370.535 245.986 15.976 248.65-38.806 2.131-43.826 91.011-34.004 135.185-23.615 433.323 39.462 301.963-157.865 224.173-220.034-77.786-62.169 62.03 18.59 62.88-277.694.85-296.284-171.742-302.936-249.522-143.99C760.859 188.18 652.801 135.551 492.916 165.95c-159.886 30.398-206.929 153.876-91.205 173.688z" stroke-opacity=".8"/>
    <path d="M408.313 340.951c90.795 15.544 80.604 81.472 64.159 112.493-32.479 113.011-46.131 229.526-48.898 273.657 19.166 363.389 241.247 15.668 243.859-38.059 2.09-42.981 89.257-33.348 132.58-23.159 424.967 38.701 296.147-154.823 219.857-215.794-76.291-60.971 60.83 18.231 61.66-272.343.84-290.575-168.428-297.098-244.709-141.216S654.565 140.798 497.76 170.61c-156.804 29.812-202.94 150.911-89.447 170.341z" stroke-opacity=".8"/>
    <path d="M414.824 342.246c89.036 15.243 79.042 79.893 62.916 110.313-31.85 110.821-45.238 225.079-47.951 268.355 18.794 356.346 236.572 15.364 239.134-37.321 2.049-42.149 87.528-32.702 130.011-22.711 416.736 37.952 290.406-151.823 215.596-211.613-74.811-59.79 59.65 17.878 60.47-267.067.82-284.944-165.168-291.341-239.971-138.48-74.803 152.863-178.725 102.249-332.491 131.483-153.766 29.235-199.009 147.987-87.714 167.041z" stroke-opacity=".8"/>
    <path d="M419.995 343.272c87.638 15.004 77.802 78.64 61.929 108.582-31.35 109.082-44.528 221.545-47.198 264.142 18.499 350.754 232.858 15.123 235.38-36.735 2.017-41.487 86.154-32.189 127.97-22.354 410.194 37.356 285.854-149.44 212.214-208.291-73.64-58.852 58.71 17.597 59.52-262.875.8-280.471-162.577-286.768-236.206-136.305-73.628 150.462-175.919 100.643-327.271 129.418-151.353 28.775-195.885 145.664-86.338 164.418z" stroke-opacity=".8"/>
    <path d="M426.246 344.517c85.95 14.715 76.302 77.124 60.735 106.49-30.745 106.979-43.669 217.276-46.288 259.052 18.142 344.001 228.371 14.832 230.844-36.028 1.978-40.687 84.494-31.568 125.504-21.923 402.289 36.636 280.339-146.56 208.119-204.277-72.215-57.717 57.59 17.258 58.38-257.809.79-275.067-159.445-281.242-231.655-133.68-72.21 147.564-172.529 98.704-320.965 126.925-148.436 28.221-192.11 142.857-84.674 161.25z" stroke-opacity=".8"/>
    <path d="M431.454 345.553c84.542 14.474 75.053 75.861 59.741 104.746-30.242 105.227-42.955 213.718-45.531 254.81 17.846 338.361 224.632 14.589 227.064-35.438 1.946-40.021 83.111-31.051 123.45-21.564 395.702 36.036 275.752-144.16 204.712-200.932-71.034-56.772 56.65 16.976 57.42-253.587.78-270.563-156.832-276.637-227.859-131.49-71.028 145.146-169.704 97.087-315.71 124.845-146.005 27.759-188.964 140.518-83.287 158.61z" stroke-opacity=".8"/>
    <path d="M436.366 346.529c83.215 14.247 73.874 74.671 58.802 103.102-29.767 103.576-42.28 210.363-44.815 250.81 17.565 333.049 221.105 14.36 223.499-34.881 1.916-39.393 81.806-30.565 121.512-21.226 389.486 35.47 271.426-141.897 201.502-197.778-69.922-55.881 55.754 16.709 56.514-249.607.76-266.316-154.368-272.294-224.281-129.426-69.913 142.868-167.04 95.563-310.754 122.886-143.713 27.324-185.998 138.312-81.979 156.12z" stroke-opacity=".8"/>
    <path d="M442.3 347.71c81.612 13.972 72.451 73.232 57.67 101.115-29.194 101.58-41.466 206.31-43.952 245.977 17.227 326.638 216.845 14.083 219.193-34.209 1.878-38.634 80.229-29.975 119.17-20.816 381.989 34.786 266.189-139.164 197.618-193.968-68.574-54.804 54.681 16.388 55.431-244.796.74-261.184-151.399-267.047-219.964-126.932C758.9 214.196 663.644 167.803 522.7 194.599c-140.944 26.797-182.414 135.647-80.4 153.111z" stroke-opacity=".8"/>
    <path d="M447.6 348.764c80.179 13.727 71.18 71.947 56.657 99.341-28.681 99.797-40.737 202.689-43.18 241.661 16.924 320.904 213.039 13.836 215.346-33.609 1.846-37.956 78.822-29.449 117.079-20.451 375.278 34.176 261.518-136.722 194.151-190.564-67.371-53.842 53.717 16.1 54.457-240.501.73-256.6-148.741-262.361-216.103-124.705-67.363 137.657-160.947 92.077-299.418 118.404-138.471 26.326-179.213 133.266-78.989 150.424z" stroke-opacity=".8"/>
    <path d="M452.258 349.692c78.921 13.511 70.062 70.817 55.768 97.781-28.231 98.23-40.098 199.507-42.503 237.867 16.659 315.87 209.696 13.619 211.966-33.081 1.817-37.36 77.585-28.987 115.242-20.131 369.389 33.64 257.419-134.575 191.103-187.572-66.314-52.997 52.876 15.847 53.596-236.725.73-252.573-146.401-258.243-212.705-122.747-66.305 135.495-158.421 90.631-294.718 116.544-136.297 25.913-176.4 131.175-77.749 148.064z" stroke-opacity=".8"/>
    <path d="M457.886 350.81c77.4 13.251 68.713 69.453 54.694 95.897-27.687 96.338-39.326 195.663-41.684 233.283 16.338 309.78 205.655 13.357 207.881-32.443 1.782-36.64 76.09-28.429 113.021-19.743 362.272 32.992 252.452-131.981 187.42-183.957-65.035-51.976 51.862 15.541 52.562-232.164.71-247.706-143.578-253.266-208.605-120.382-65.027 132.885-155.367 88.885-289.038 114.299-133.671 25.414-173 128.647-76.251 145.21z" stroke-opacity=".8"/>
    <path d="M462.577 351.743c76.132 13.034 67.587 68.315 53.798 94.327-27.234 94.76-38.682 192.459-41.002 229.463 16.071 304.707 202.287 13.138 204.478-31.912 1.752-36.04 74.843-27.963 111.17-19.419 356.339 32.451 248.319-129.821 184.351-180.946-63.97-51.124 51.008 15.288 51.708-228.362.7-243.65-141.233-249.12-205.196-118.41-63.962 130.708-152.823 87.429-284.305 112.427-131.482 24.997-170.168 126.54-75.002 142.832z" stroke-opacity=".8"/>
    <path d="M466.999 352.622c74.938 12.83 66.526 67.243 52.954 92.846-26.807 93.273-38.075 189.438-40.358 225.861 15.818 299.924 199.112 12.932 201.268-31.411 1.725-35.474 73.668-27.524 109.424-19.114 350.743 31.942 244.423-127.783 181.458-178.105-62.966-50.322 50.205 15.047 50.895-224.778.69-239.825-139.015-245.208-201.973-116.552-62.959 128.657-150.425 86.058-279.843 110.663-129.418 24.605-167.496 124.554-73.825 140.59z" stroke-opacity=".8"/>
    <path d="M472.344 353.686c73.493 12.582 65.244 65.947 51.933 91.056-26.29 91.476-37.341 185.788-39.58 221.51 15.513 294.144 195.275 12.682 197.389-30.806 1.692-34.791 72.249-26.994 107.316-18.746 343.988 31.326 239.718-125.321 177.961-174.673-61.753-49.353 49.237 14.757 49.917-220.446.67-235.204-136.339-240.484-198.084-114.306-61.745 126.177-147.526 84.399-274.45 108.53-126.924 24.131-164.269 122.153-72.402 137.881z" stroke-opacity=".8"/>
    <path d="M476.766 354.565c72.298 12.378 64.183 64.875 51.089 89.576-25.862 89.988-36.734 182.767-38.937 217.907 15.261 289.361 192.1 12.477 194.18-30.305 1.664-34.225 71.074-26.554 105.571-18.441C1127.06 644.119 1024.48 490.02 963.736 441.47c-60.749-48.55 48.434 14.517 49.104-216.862.66-231.378-134.121-236.573-194.862-112.447-60.741 124.126-145.127 83.027-269.987 106.765-124.86 23.739-161.597 120.167-71.225 135.639z" stroke-opacity=".8"/>
    <path d="M480.966 355.4c71.164 12.183 63.176 63.856 50.287 88.17-25.456 88.575-36.157 179.897-38.325 214.486 15.021 284.819 189.084 12.281 191.131-29.829 1.638-33.688 69.958-26.138 103.914-18.152 333.077 30.334 232.117-121.347 172.319-169.135-59.795-47.788 47.678 14.29 48.328-213.457.66-227.746-132.011-232.859-191.798-110.682-59.788 122.178-142.849 81.724-265.749 105.09-122.9 23.366-159.061 118.28-70.107 133.509z" stroke-opacity=".8"/>
    <path d="M486.041 356.41c69.792 11.948 61.959 62.626 49.318 86.471-24.966 86.868-35.46 176.43-37.587 210.353 14.732 279.33 185.44 12.044 187.448-29.255 1.607-33.038 68.61-25.634 101.912-17.802C1113.8 635.926 1014.77 487.169 956.13 440.302c-58.643-46.867 46.76 14.014 47.4-209.344C1004.17 7.6 874.06 2.586 815.425 122.409c-58.635 119.823-140.096 80.148-260.628 103.064-120.532 22.916-155.995 116.001-68.756 130.937z" stroke-opacity=".8"/>
    <path d="M490.27 357.25c68.65 11.753 60.944 61.6 48.51 85.055-24.556 85.446-34.879 173.541-36.971 206.908C516.3 923.97 684.213 661.06 686.188 620.438c1.58-32.498 67.487-25.214 100.242-17.511 321.32 29.262 223.91-117.06 166.232-163.159-57.683-46.1 45.994 13.784 46.623-205.916.63-219.7-127.349-224.632-185.025-106.772-57.675 117.861-137.801 78.836-256.359 101.377-118.559 22.54-153.442 114.102-67.631 128.793z" stroke-opacity=".8"/>
    <path d="M494.259 358.043c67.571 11.569 59.987 60.634 47.748 83.72-24.171 84.105-34.332 170.817-36.391 203.661 14.264 270.443 179.541 11.66 181.485-28.324 1.555-31.988 66.427-24.819 98.669-17.236 316.27 28.803 220.4-115.222 163.621-160.598-56.777-45.376 45.272 13.568 45.892-202.683.62-216.252-125.35-221.107-182.12-105.096-56.77 116.011-135.639 77.598-252.336 99.785-116.697 22.187-151.033 112.311-66.568 126.771z" stroke-opacity=".8"/>
    <path d="M499.078 359.001c66.269 11.346 58.831 59.465 46.828 82.107-23.705 82.484-33.67 167.526-35.69 199.736 13.989 265.232 176.081 11.436 177.988-27.778 1.525-31.371 65.147-24.34 96.767-16.903C1095.15 624.41 1001.12 483.16 945.44 438.659c-55.683-44.502 44.4 13.307 45.007-198.778.608-212.084-122.935-216.845-178.61-103.07-55.676 113.775-133.025 76.103-247.474 97.862-114.448 21.759-148.122 110.147-65.285 124.328z" stroke-opacity=".8"/>
    <path d="M503.381 359.859c65.107 11.146 57.799 58.422 46.007 80.666-23.289 81.036-33.079 164.586-35.063 196.231 13.743 260.578 172.991 11.235 174.864-27.291 1.498-30.82 64.004-23.913 95.069-16.606 304.732 27.751 212.359-111.019 157.653-154.74-54.706-43.721 43.621 13.073 44.218-195.29.597-208.363-120.778-213.04-175.477-101.262-54.699 111.779-130.69 74.768-243.13 96.146-112.441 21.377-145.524 108.213-64.141 122.146z" stroke-opacity=".8"/>
    <path d="M507.164 360.611c64.084 10.971 56.891 57.504 45.284 79.399-22.924 79.765-32.56 162.003-34.513 193.151 13.527 256.487 170.275 11.059 172.119-26.862 1.475-30.337 62.999-23.538 93.577-16.346 299.949 27.316 209.026-109.277 155.178-152.311-53.847-43.034 42.936 12.868 43.524-192.224.587-205.092-118.882-209.696-172.722-99.672s-128.639 73.594-239.314 94.635c-110.675 21.042-143.239 106.516-63.133 120.23z" stroke-opacity=".8"/>
    <path d="M511.734 361.52c62.85 10.76 55.795 56.396 44.412 77.869-22.482 78.228-31.933 158.881-33.848 189.429 13.267 251.545 166.994 10.846 168.803-26.344 1.446-29.753 61.785-23.084 91.773-16.031 294.166 26.789 204.998-107.171 152.188-149.376-52.809-42.205 42.109 12.62 42.685-188.52.576-201.14-116.591-205.655-169.394-97.751-52.802 107.903-126.16 72.175-234.702 92.812-108.542 20.636-140.479 104.462-61.917 117.912z" stroke-opacity=".8"/>
    <path d="M515.543 362.278c61.82 10.583 54.881 55.472 43.684 76.594-22.114 76.946-31.41 156.279-33.294 186.327 13.05 247.426 164.26 10.668 166.039-25.913 1.423-29.265 60.773-22.706 90.271-15.769 289.357 26.351 201.641-105.416 149.696-146.93-51.945-41.514 41.419 12.414 41.986-185.433.567-197.846-114.682-202.287-166.62-96.15-51.938 106.136-124.095 70.994-230.86 91.292-106.765 20.298-138.178 102.752-60.902 115.982z" stroke-opacity=".8"/>
    <path d="M519.134 362.992c60.85 10.417 54.02 54.602 42.999 75.392-21.767 75.738-30.917 153.826-32.771 183.402 12.844 243.542 161.681 10.501 163.432-25.507 1.4-28.805 59.819-22.349 88.854-15.521 284.812 25.938 198.475-103.761 147.346-144.623-51.13-40.862 40.768 12.219 41.326-182.522.559-194.74-112.881-199.112-164.004-94.642-51.123 104.471-122.146 69.88-227.235 89.86-105.089 19.979-136.009 101.139-59.947 114.161z" stroke-opacity=".8"/>
    <path d="M523.473 363.855c59.678 10.216 52.979 53.549 42.17 73.939-21.347 74.279-30.321 150.861-32.139 179.868 12.597 238.848 158.566 10.298 160.283-25.015 1.373-28.251 58.666-21.919 87.141-15.222 279.322 25.437 194.651-101.762 144.507-141.837-50.144-40.075 39.983 11.983 40.53-179.005.547-190.988-110.706-195.275-160.844-92.817-50.137 102.457-119.792 68.533-222.856 88.127-103.064 19.595-133.388 99.19-58.792 111.962z" stroke-opacity=".8"/>
    <defs>
        <linearGradient id="ay" x1="949.487" y1="-108.325" x2="397.365" y2="883.252" gradientUnits="userSpaceOnUse">
            <stop stop-color="#0963B8"/>
            <stop offset=".172" stop-color="#6200AE"/>
            <stop offset=".318" stop-color="#1900AE"/>
            <stop offset=".661" stop-color="#260091"/>
            <stop offset=".896" stop-color="#4731FC"/>
            <stop offset=".979" stop-color="#3221F1"/>
            <stop offset="1" stop-color="#21C9F1"/>
        </linearGradient>
        <linearGradient id="aa" x1="1056.46" y1="-377.439" x2="216.447" y2="1131.17" gradientUnits="userSpaceOnUse">
            <stop stop-color="#0963B8"/>
            <stop offset=".172" stop-color="#6200AE"/>
            <stop offset=".318" stop-color="#1900AE"/>
            <stop offset=".661" stop-color="#260091"/>
            <stop offset=".896" stop-color="#4731FC"/>
            <stop offset=".979" stop-color="#3221F1"/>
            <stop offset="1" stop-color="#21C9F1"/>
        </linearGradient>
        <linearGradient id="ac" x1="1045.64" y1="-350.219" x2="234.747" y2="1106.1" gradientUnits="userSpaceOnUse">
            <stop stop-color="#0963B8"/>
            <stop offset=".172" stop-color="#6200AE"/>
            <stop offset=".318" stop-color="#1900AE"/>
            <stop offset=".661" stop-color="#260091"/>
            <stop offset=".896" stop-color="#4731FC"/>
            <stop offset=".979" stop-color="#3221F1"/>
            <stop offset="1" stop-color="#21C9F1"/>
        </linearGradient>
        <linearGradient id="ad" x1="1040.71" y1="-337.807" x2="243.091" y2="1094.66" gradientUnits="userSpaceOnUse">
            <stop stop-color="#0963B8"/>
            <stop offset=".172" stop-color="#6200AE"/>
            <stop offset=".318" stop-color="#1900AE"/>
            <stop offset=".661" stop-color="#260091"/>
            <stop offset=".896" stop-color="#4731FC"/>
            <stop offset=".979" stop-color="#3221F1"/>
            <stop offset="1" stop-color="#21C9F1"/>
        </linearGradient>
        <linearGradient id="ae" x1="1036.05" y1="-326.103" x2="250.958" y2="1083.88" gradientUnits="userSpaceOnUse">
            <stop stop-color="#0963B8"/>
            <stop offset=".172" stop-color="#6200AE"/>
            <stop offset=".318" stop-color="#1900AE"/>
            <stop offset=".661" stop-color="#260091"/>
            <stop offset=".896" stop-color="#4731FC"/>
            <stop offset=".979" stop-color="#3221F1"/>
            <stop offset="1" stop-color="#21C9F1"/>
        </linearGradient>
        <linearGradient id="af" x1="1030.43" y1="-311.961" x2="260.466" y2="1070.85" gradientUnits="userSpaceOnUse">
            <stop stop-color="#0963B8"/>
            <stop offset=".172" stop-color="#6200AE"/>
            <stop offset=".318" stop-color="#1900AE"/>
            <stop offset=".661" stop-color="#260091"/>
            <stop offset=".896" stop-color="#4731FC"/>
            <stop offset=".979" stop-color="#3221F1"/>
            <stop offset="1" stop-color="#21C9F1"/>
        </linearGradient>
        <linearGradient id="ag" x1="1025.41" y1="-299.332" x2="268.957" y2="1059.22" gradientUnits="userSpaceOnUse">
            <stop stop-color="#0963B8"/>
            <stop offset=".172" stop-color="#6200AE"/>
            <stop offset=".318" stop-color="#1900AE"/>
            <stop offset=".661" stop-color="#260091"/>
            <stop offset=".896" stop-color="#4731FC"/>
            <stop offset=".979" stop-color="#3221F1"/>
            <stop offset="1" stop-color="#21C9F1"/>
        </linearGradient>
        <linearGradient id="ah" x1="1021" y1="-288.231" x2="276.419" y2="1048.99" gradientUnits="userSpaceOnUse">
            <stop stop-color="#0963B8"/>
            <stop offset=".172" stop-color="#6200AE"/>
            <stop offset=".318" stop-color="#1900AE"/>
            <stop offset=".661" stop-color="#260091"/>
            <stop offset=".896" stop-color="#4731FC"/>
            <stop offset=".979" stop-color="#3221F1"/>
            <stop offset="1" stop-color="#21C9F1"/>
        </linearGradient>
        <linearGradient id="ai" x1="1015.67" y1="-274.819" x2="285.436" y2="1036.64" gradientUnits="userSpaceOnUse">
            <stop stop-color="#0963B8"/>
            <stop offset=".172" stop-color="#6200AE"/>
            <stop offset=".318" stop-color="#1900AE"/>
            <stop offset=".661" stop-color="#260091"/>
            <stop offset=".896" stop-color="#4731FC"/>
            <stop offset=".979" stop-color="#3221F1"/>
            <stop offset="1" stop-color="#21C9F1"/>
        </linearGradient>
        <linearGradient id="aj" x1="1011.23" y1="-263.643" x2="292.95" y2="1026.34" gradientUnits="userSpaceOnUse">
            <stop stop-color="#0963B8"/>
            <stop offset=".172" stop-color="#6200AE"/>
            <stop offset=".318" stop-color="#1900AE"/>
            <stop offset=".661" stop-color="#260091"/>
            <stop offset=".896" stop-color="#4731FC"/>
            <stop offset=".979" stop-color="#3221F1"/>
            <stop offset="1" stop-color="#21C9F1"/>
        </linearGradient>
        <linearGradient id="ak" x1="1007.04" y1="-253.103" x2="300.035" y2="1016.63" gradientUnits="userSpaceOnUse">
            <stop stop-color="#0963B8"/>
            <stop offset=".172" stop-color="#6200AE"/>
            <stop offset=".318" stop-color="#1900AE"/>
            <stop offset=".661" stop-color="#260091"/>
            <stop offset=".896" stop-color="#4731FC"/>
            <stop offset=".979" stop-color="#3221F1"/>
            <stop offset="1" stop-color="#21C9F1"/>
        </linearGradient>
        <linearGradient id="al" x1="1001.97" y1="-240.367" x2="308.597" y2="1004.9" gradientUnits="userSpaceOnUse">
            <stop stop-color="#0963B8"/>
            <stop offset=".172" stop-color="#6200AE"/>
            <stop offset=".318" stop-color="#1900AE"/>
            <stop offset=".661" stop-color="#260091"/>
            <stop offset=".896" stop-color="#4731FC"/>
            <stop offset=".979" stop-color="#3221F1"/>
            <stop offset="1" stop-color="#21C9F1"/>
        </linearGradient>
        <linearGradient id="am" x1="997.784" y1="-229.827" x2="315.683" y2="995.185" gradientUnits="userSpaceOnUse">
            <stop stop-color="#0963B8"/>
            <stop offset=".172" stop-color="#6200AE"/>
            <stop offset=".318" stop-color="#1900AE"/>
            <stop offset=".661" stop-color="#260091"/>
            <stop offset=".896" stop-color="#4731FC"/>
            <stop offset=".979" stop-color="#3221F1"/>
            <stop offset="1" stop-color="#21C9F1"/>
        </linearGradient>
        <linearGradient id="an" x1="993.806" y1="-219.818" x2="322.411" y2="985.965" gradientUnits="userSpaceOnUse">
            <stop stop-color="#0963B8"/>
            <stop offset=".172" stop-color="#6200AE"/>
            <stop offset=".318" stop-color="#1900AE"/>
            <stop offset=".661" stop-color="#260091"/>
            <stop offset=".896" stop-color="#4731FC"/>
            <stop offset=".979" stop-color="#3221F1"/>
            <stop offset="1" stop-color="#21C9F1"/>
        </linearGradient>
        <linearGradient id="ao" x1="988.998" y1="-207.724" x2="330.542" y2="974.823" gradientUnits="userSpaceOnUse">
            <stop stop-color="#0963B8"/>
            <stop offset=".172" stop-color="#6200AE"/>
            <stop offset=".318" stop-color="#1900AE"/>
            <stop offset=".661" stop-color="#260091"/>
            <stop offset=".896" stop-color="#4731FC"/>
            <stop offset=".979" stop-color="#3221F1"/>
            <stop offset="1" stop-color="#21C9F1"/>
        </linearGradient>
        <linearGradient id="ap" x1="984.992" y1="-197.646" x2="337.317" y2="965.538" gradientUnits="userSpaceOnUse">
            <stop stop-color="#0963B8"/>
            <stop offset=".172" stop-color="#6200AE"/>
            <stop offset=".318" stop-color="#1900AE"/>
            <stop offset=".661" stop-color="#260091"/>
            <stop offset=".896" stop-color="#4731FC"/>
            <stop offset=".979" stop-color="#3221F1"/>
            <stop offset="1" stop-color="#21C9F1"/>
        </linearGradient>
        <linearGradient id="aq" x1="981.214" y1="-188.141" x2="343.706" y2="956.783" gradientUnits="userSpaceOnUse">
            <stop stop-color="#0963B8"/>
            <stop offset=".172" stop-color="#6200AE"/>
            <stop offset=".318" stop-color="#1900AE"/>
            <stop offset=".661" stop-color="#260091"/>
            <stop offset=".896" stop-color="#4731FC"/>
            <stop offset=".979" stop-color="#3221F1"/>
            <stop offset="1" stop-color="#21C9F1"/>
        </linearGradient>
        <linearGradient id="ar" x1="976.65" y1="-176.658" x2="351.427" y2="946.203" gradientUnits="userSpaceOnUse">
            <stop stop-color="#0963B8"/>
            <stop offset=".172" stop-color="#6200AE"/>
            <stop offset=".318" stop-color="#1900AE"/>
            <stop offset=".661" stop-color="#260091"/>
            <stop offset=".896" stop-color="#4731FC"/>
            <stop offset=".979" stop-color="#3221F1"/>
            <stop offset="1" stop-color="#21C9F1"/>
        </linearGradient>
        <linearGradient id="as" x1="972.573" y1="-166.402" x2="358.321" y2="936.756" gradientUnits="userSpaceOnUse">
            <stop stop-color="#0963B8"/>
            <stop offset=".172" stop-color="#6200AE"/>
            <stop offset=".318" stop-color="#1900AE"/>
            <stop offset=".661" stop-color="#260091"/>
            <stop offset=".896" stop-color="#4731FC"/>
            <stop offset=".979" stop-color="#3221F1"/>
            <stop offset="1" stop-color="#21C9F1"/>
        </linearGradient>
        <linearGradient id="at" x1="968.99" y1="-157.389" x2="364.38" y2="928.452" gradientUnits="userSpaceOnUse">
            <stop stop-color="#0963B8"/>
            <stop offset=".172" stop-color="#6200AE"/>
            <stop offset=".318" stop-color="#1900AE"/>
            <stop offset=".661" stop-color="#260091"/>
            <stop offset=".896" stop-color="#4731FC"/>
            <stop offset=".979" stop-color="#3221F1"/>
            <stop offset="1" stop-color="#21C9F1"/>
        </linearGradient>
        <linearGradient id="au" x1="964.661" y1="-146.498" x2="371.702" y2="918.419" gradientUnits="userSpaceOnUse">
            <stop stop-color="#0963B8"/>
            <stop offset=".172" stop-color="#6200AE"/>
            <stop offset=".318" stop-color="#1900AE"/>
            <stop offset=".661" stop-color="#260091"/>
            <stop offset=".896" stop-color="#4731FC"/>
            <stop offset=".979" stop-color="#3221F1"/>
            <stop offset="1" stop-color="#21C9F1"/>
        </linearGradient>
        <linearGradient id="av" x1="961.053" y1="-137.423" x2="377.804" y2="910.057" gradientUnits="userSpaceOnUse">
            <stop stop-color="#0963B8"/>
            <stop offset=".172" stop-color="#6200AE"/>
            <stop offset=".318" stop-color="#1900AE"/>
            <stop offset=".661" stop-color="#260091"/>
            <stop offset=".896" stop-color="#4731FC"/>
            <stop offset=".979" stop-color="#3221F1"/>
            <stop offset="1" stop-color="#21C9F1"/>
        </linearGradient>
        <linearGradient id="aw" x1="957.651" y1="-128.863" x2="383.558" y2="902.173" gradientUnits="userSpaceOnUse">
            <stop stop-color="#0963B8"/>
            <stop offset=".172" stop-color="#6200AE"/>
            <stop offset=".318" stop-color="#1900AE"/>
            <stop offset=".661" stop-color="#260091"/>
            <stop offset=".896" stop-color="#4731FC"/>
            <stop offset=".979" stop-color="#3221F1"/>
            <stop offset="1" stop-color="#21C9F1"/>
        </linearGradient>
        <linearGradient id="ax" x1="953.54" y1="-118.522" x2="390.51" y2="892.646" gradientUnits="userSpaceOnUse">
            <stop stop-color="#0963B8"/>
            <stop offset=".172" stop-color="#6200AE"/>
            <stop offset=".318" stop-color="#1900AE"/>
            <stop offset=".661" stop-color="#260091"/>
            <stop offset=".896" stop-color="#4731FC"/>
            <stop offset=".979" stop-color="#3221F1"/>
            <stop offset="1" stop-color="#21C9F1"/>
        </linearGradient>
        <linearGradient id="ab" x1="1051.56" y1="-365.113" x2="224.734" y2="1119.82" gradientUnits="userSpaceOnUse">
            <stop stop-color="#0963B8"/>
            <stop offset=".172" stop-color="#6200AE"/>
            <stop offset=".318" stop-color="#1900AE"/>
            <stop offset=".661" stop-color="#260091"/>
            <stop offset=".896" stop-color="#4731FC"/>
            <stop offset=".979" stop-color="#3221F1"/>
            <stop offset="1" stop-color="#21C9F1"/>
        </linearGradient>
        <linearGradient id="az" x1="946.265" y1="-100.225" x2="402.811" y2="875.786" gradientUnits="userSpaceOnUse">
            <stop stop-color="#0963B8"/>
            <stop offset=".172" stop-color="#6200AE"/>
            <stop offset=".318" stop-color="#1900AE"/>
            <stop offset=".661" stop-color="#260091"/>
            <stop offset=".896" stop-color="#4731FC"/>
            <stop offset=".979" stop-color="#3221F1"/>
            <stop offset="1" stop-color="#21C9F1"/>
        </linearGradient>
        <linearGradient id="aA" x1="942.375" y1="-90.434" x2="409.393" y2="866.769" gradientUnits="userSpaceOnUse">
            <stop stop-color="#0963B8"/>
            <stop offset=".172" stop-color="#6200AE"/>
            <stop offset=".318" stop-color="#1900AE"/>
            <stop offset=".661" stop-color="#260091"/>
            <stop offset=".896" stop-color="#4731FC"/>
            <stop offset=".979" stop-color="#3221F1"/>
            <stop offset="1" stop-color="#21C9F1"/>
        </linearGradient>
        <linearGradient id="aB" x1="939.132" y1="-82.276" x2="414.877" y2="859.253" gradientUnits="userSpaceOnUse">
            <stop stop-color="#0963B8"/>
            <stop offset=".172" stop-color="#6200AE"/>
            <stop offset=".318" stop-color="#1900AE"/>
            <stop offset=".661" stop-color="#260091"/>
            <stop offset=".896" stop-color="#4731FC"/>
            <stop offset=".979" stop-color="#3221F1"/>
            <stop offset="1" stop-color="#21C9F1"/>
        </linearGradient>
        <linearGradient id="aC" x1="936.074" y1="-74.584" x2="420.049" y2="852.166" gradientUnits="userSpaceOnUse">
            <stop stop-color="#0963B8"/>
            <stop offset=".172" stop-color="#6200AE"/>
            <stop offset=".318" stop-color="#1900AE"/>
            <stop offset=".661" stop-color="#260091"/>
            <stop offset=".896" stop-color="#4731FC"/>
            <stop offset=".979" stop-color="#3221F1"/>
            <stop offset="1" stop-color="#21C9F1"/>
        </linearGradient>
        <linearGradient id="aD" x1="932.379" y1="-65.288" x2="426.297" y2="843.603" gradientUnits="userSpaceOnUse">
            <stop stop-color="#0963B8"/>
            <stop offset=".172" stop-color="#6200AE"/>
            <stop offset=".318" stop-color="#1900AE"/>
            <stop offset=".661" stop-color="#260091"/>
            <stop offset=".896" stop-color="#4731FC"/>
            <stop offset=".979" stop-color="#3221F1"/>
            <stop offset="1" stop-color="#21C9F1"/>
        </linearGradient>
        <linearGradient id="aE" x1="929.079" y1="-56.987" x2="431.878" y2="835.956" gradientUnits="userSpaceOnUse">
            <stop stop-color="#0963B8"/>
            <stop offset=".172" stop-color="#6200AE"/>
            <stop offset=".318" stop-color="#1900AE"/>
            <stop offset=".661" stop-color="#260091"/>
            <stop offset=".896" stop-color="#4731FC"/>
            <stop offset=".979" stop-color="#3221F1"/>
            <stop offset="1" stop-color="#21C9F1"/>
        </linearGradient>
        <linearGradient id="aF" x1="926.179" y1="-49.69" x2="436.783" y2="829.235" gradientUnits="userSpaceOnUse">
            <stop stop-color="#0963B8"/>
            <stop offset=".172" stop-color="#6200AE"/>
            <stop offset=".318" stop-color="#1900AE"/>
            <stop offset=".661" stop-color="#260091"/>
            <stop offset=".896" stop-color="#4731FC"/>
            <stop offset=".979" stop-color="#3221F1"/>
            <stop offset="1" stop-color="#21C9F1"/>
        </linearGradient>
        <linearGradient id="aG" x1="922.675" y1="-40.876" x2="442.709" y2="821.113" gradientUnits="userSpaceOnUse">
            <stop stop-color="#0963B8"/>
            <stop offset=".172" stop-color="#6200AE"/>
            <stop offset=".318" stop-color="#1900AE"/>
            <stop offset=".661" stop-color="#260091"/>
            <stop offset=".896" stop-color="#4731FC"/>
            <stop offset=".979" stop-color="#3221F1"/>
            <stop offset="1" stop-color="#21C9F1"/>
        </linearGradient>
        <linearGradient id="aH" x1="919.754" y1="-33.529" x2="447.648" y2="814.345" gradientUnits="userSpaceOnUse">
            <stop stop-color="#0963B8"/>
            <stop offset=".172" stop-color="#6200AE"/>
            <stop offset=".318" stop-color="#1900AE"/>
            <stop offset=".661" stop-color="#260091"/>
            <stop offset=".896" stop-color="#4731FC"/>
            <stop offset=".979" stop-color="#3221F1"/>
            <stop offset="1" stop-color="#21C9F1"/>
        </linearGradient>
        <linearGradient id="aI" x1="917" y1="-26.602" x2="452.305" y2="807.962" gradientUnits="userSpaceOnUse">
            <stop stop-color="#0963B8"/>
            <stop offset=".172" stop-color="#6200AE"/>
            <stop offset=".318" stop-color="#1900AE"/>
            <stop offset=".661" stop-color="#260091"/>
            <stop offset=".896" stop-color="#4731FC"/>
            <stop offset=".979" stop-color="#3221F1"/>
            <stop offset="1" stop-color="#21C9F1"/>
        </linearGradient>
        <linearGradient id="aJ" x1="913.673" y1="-18.231" x2="457.933" y2="800.251" gradientUnits="userSpaceOnUse">
            <stop stop-color="#0963B8"/>
            <stop offset=".172" stop-color="#6200AE"/>
            <stop offset=".318" stop-color="#1900AE"/>
            <stop offset=".661" stop-color="#260091"/>
            <stop offset=".896" stop-color="#4731FC"/>
            <stop offset=".979" stop-color="#3221F1"/>
            <stop offset="1" stop-color="#21C9F1"/>
        </linearGradient>
        <linearGradient id="aK" x1="910.919" y1="-11.303" x2="462.589" y2="793.869" gradientUnits="userSpaceOnUse">
            <stop stop-color="#0963B8"/>
            <stop offset=".172" stop-color="#6200AE"/>
            <stop offset=".318" stop-color="#1900AE"/>
            <stop offset=".661" stop-color="#260091"/>
            <stop offset=".896" stop-color="#4731FC"/>
            <stop offset=".979" stop-color="#3221F1"/>
            <stop offset="1" stop-color="#21C9F1"/>
        </linearGradient>
        <linearGradient id="aL" x1="908.304" y1="-4.725" x2="467.012" y2="787.808" gradientUnits="userSpaceOnUse">
            <stop stop-color="#0963B8"/>
            <stop offset=".172" stop-color="#6200AE"/>
            <stop offset=".318" stop-color="#1900AE"/>
            <stop offset=".661" stop-color="#260091"/>
            <stop offset=".896" stop-color="#4731FC"/>
            <stop offset=".979" stop-color="#3221F1"/>
            <stop offset="1" stop-color="#21C9F1"/>
        </linearGradient>
        <linearGradient id="aM" x1="905.144" y1="3.224" x2="472.356" y2="780.485" gradientUnits="userSpaceOnUse">
            <stop stop-color="#0963B8"/>
            <stop offset=".172" stop-color="#6200AE"/>
            <stop offset=".318" stop-color="#1900AE"/>
            <stop offset=".661" stop-color="#260091"/>
            <stop offset=".896" stop-color="#4731FC"/>
            <stop offset=".979" stop-color="#3221F1"/>
            <stop offset="1" stop-color="#21C9F1"/>
        </linearGradient>
        <linearGradient id="aN" x1="902.511" y1="9.847" x2="476.809" y2="774.381" gradientUnits="userSpaceOnUse">
            <stop stop-color="#0963B8"/>
            <stop offset=".172" stop-color="#6200AE"/>
            <stop offset=".318" stop-color="#1900AE"/>
            <stop offset=".661" stop-color="#260091"/>
            <stop offset=".896" stop-color="#4731FC"/>
            <stop offset=".979" stop-color="#3221F1"/>
            <stop offset="1" stop-color="#21C9F1"/>
        </linearGradient>
        <linearGradient id="aO" x1="900.028" y1="16.094" x2="481.009" y2="768.626" gradientUnits="userSpaceOnUse">
            <stop stop-color="#0963B8"/>
            <stop offset=".172" stop-color="#6200AE"/>
            <stop offset=".318" stop-color="#1900AE"/>
            <stop offset=".661" stop-color="#260091"/>
            <stop offset=".896" stop-color="#4731FC"/>
            <stop offset=".979" stop-color="#3221F1"/>
            <stop offset="1" stop-color="#21C9F1"/>
        </linearGradient>
        <linearGradient id="aP" x1="897.028" y1="23.642" x2="486.083" y2="761.672" gradientUnits="userSpaceOnUse">
            <stop stop-color="#0963B8"/>
            <stop offset=".172" stop-color="#6200AE"/>
            <stop offset=".318" stop-color="#1900AE"/>
            <stop offset=".661" stop-color="#260091"/>
            <stop offset=".896" stop-color="#4731FC"/>
            <stop offset=".979" stop-color="#3221F1"/>
            <stop offset="1" stop-color="#21C9F1"/>
        </linearGradient>
        <linearGradient id="aQ" x1="894.348" y1="30.384" x2="490.615" y2="755.464" gradientUnits="userSpaceOnUse">
            <stop stop-color="#0963B8"/>
            <stop offset=".172" stop-color="#6200AE"/>
            <stop offset=".318" stop-color="#1900AE"/>
            <stop offset=".661" stop-color="#260091"/>
            <stop offset=".896" stop-color="#4731FC"/>
            <stop offset=".979" stop-color="#3221F1"/>
            <stop offset="1" stop-color="#21C9F1"/>
        </linearGradient>
        <linearGradient id="aR" x1="891.993" y1="36.308" x2="494.597" y2="750.006" gradientUnits="userSpaceOnUse">
            <stop stop-color="#0963B8"/>
            <stop offset=".172" stop-color="#6200AE"/>
            <stop offset=".318" stop-color="#1900AE"/>
            <stop offset=".661" stop-color="#260091"/>
            <stop offset=".896" stop-color="#4731FC"/>
            <stop offset=".979" stop-color="#3221F1"/>
            <stop offset="1" stop-color="#21C9F1"/>
        </linearGradient>
        <linearGradient id="aS" x1="889.148" y1="43.467" x2="499.41" y2="743.411" gradientUnits="userSpaceOnUse">
            <stop stop-color="#0963B8"/>
            <stop offset=".172" stop-color="#6200AE"/>
            <stop offset=".318" stop-color="#1900AE"/>
            <stop offset=".661" stop-color="#260091"/>
            <stop offset=".896" stop-color="#4731FC"/>
            <stop offset=".979" stop-color="#3221F1"/>
            <stop offset="1" stop-color="#21C9F1"/>
        </linearGradient>
        <linearGradient id="aT" x1="886.776" y1="49.432" x2="503.421" y2="737.916" gradientUnits="userSpaceOnUse">
            <stop stop-color="#0963B8"/>
            <stop offset=".172" stop-color="#6200AE"/>
            <stop offset=".318" stop-color="#1900AE"/>
            <stop offset=".661" stop-color="#260091"/>
            <stop offset=".896" stop-color="#4731FC"/>
            <stop offset=".979" stop-color="#3221F1"/>
            <stop offset="1" stop-color="#21C9F1"/>
        </linearGradient>
        <linearGradient id="aU" x1="884.54" y1="55.057" x2="507.202" y2="732.733" gradientUnits="userSpaceOnUse">
            <stop stop-color="#0963B8"/>
            <stop offset=".172" stop-color="#6200AE"/>
            <stop offset=".318" stop-color="#1900AE"/>
            <stop offset=".661" stop-color="#260091"/>
            <stop offset=".896" stop-color="#4731FC"/>
            <stop offset=".979" stop-color="#3221F1"/>
            <stop offset="1" stop-color="#21C9F1"/>
        </linearGradient>
        <linearGradient id="aV" x1="881.838" y1="61.854" x2="511.771" y2="726.471" gradientUnits="userSpaceOnUse">
            <stop stop-color="#0963B8"/>
            <stop offset=".172" stop-color="#6200AE"/>
            <stop offset=".318" stop-color="#1900AE"/>
            <stop offset=".661" stop-color="#260091"/>
            <stop offset=".896" stop-color="#4731FC"/>
            <stop offset=".979" stop-color="#3221F1"/>
            <stop offset="1" stop-color="#21C9F1"/>
        </linearGradient>
    </defs>
</symbol><symbol viewBox="0 0 61 60" id="icon__test" xmlns="http://www.w3.org/2000/svg">
    <path d="M56.7965 10.9808C56.6267 10.7823 56.3779 10.6681 56.1161 10.6681H13.7986L12.0731 4.88533C11.9589 4.50508 11.6098 4.245 11.2134 4.245H4.59532C4.09967 4.245 3.69849 4.64618 3.69849 5.14183C3.69849 5.63748 4.09967 6.03866 4.59532 6.03866H10.5449L21.4468 42.5721C21.448 42.5763 21.4516 42.5799 21.4528 42.5841L22.807 47.1902C21.9521 48.0398 21.4223 49.2159 21.4223 50.5127C21.4223 53.1015 23.5275 55.2079 26.1146 55.2079C28.6185 55.2079 30.6639 53.2301 30.7901 50.753H42.544C42.5434 50.7859 42.5392 50.8182 42.5392 50.8517C42.5392 53.4381 44.6432 55.5427 47.229 55.5427C49.8149 55.5427 51.9195 53.4381 51.9195 50.8517C51.9195 48.2652 49.8149 46.1606 47.229 46.1606C45.3164 46.1606 43.6704 47.3134 42.9416 48.9594H30.5342C30.3046 48.3047 29.9345 47.7026 29.4293 47.1974C28.5438 46.3119 27.3671 45.8234 26.1164 45.8234C26.1158 45.8234 26.1152 45.8234 26.1152 45.8234C25.4999 45.8234 24.9134 45.9454 24.3747 46.1618L23.5078 43.2124H51.4131C51.8561 43.2124 52.2328 42.889 52.2991 42.4513L57.0027 11.7001C57.0422 11.4418 56.9669 11.1793 56.7965 10.9808ZM47.229 47.9549C48.826 47.9549 50.1258 49.2547 50.1258 50.8523C50.1258 52.4498 48.826 53.7496 47.229 53.7496C45.6321 53.7496 44.3328 52.4498 44.3328 50.8523C44.3328 49.2547 45.6321 47.9549 47.229 47.9549ZM26.1152 47.6177H26.1158C26.8876 47.6177 27.6135 47.919 28.1599 48.4661C28.707 49.0132 29.0077 49.7408 29.0077 50.5139C29.0077 52.1138 27.7097 53.4154 26.114 53.4154C24.5158 53.4154 23.2154 52.1138 23.2154 50.5139C23.216 48.9169 24.5164 47.6177 26.1152 47.6177ZM50.6424 41.4194H22.9798L21.2842 35.6509C21.2627 35.578 21.2304 35.5116 21.1933 35.4488L14.3337 12.4618H55.0715L50.6424 41.4194Z"/>
</symbol></svg>