<?xml version="1.0" encoding="utf-8"?><svg viewBox="0 0 65 65" xmlns="http://www.w3.org/2000/svg" xmlns:xlink="http://www.w3.org/1999/xlink"><style>:root>svg{display:none}:root>svg:target{display:block}</style><svg viewBox="0 0 65 65" fill="none" id="icon__car" xmlns="http://www.w3.org/2000/svg"><path d="M61.325 32.04h-5.101v-8.591a.956.956 0 0 0-.955-.956H39.355v-8.568a.956.956 0 0 0-.956-.955H3.28a.956.956 0 0 0-.955.955v32.162c0 .528.428.956.955.956h8.218c.329 2.529 2.492 4.49 5.11 4.49 2.613 0 4.773-1.96 5.101-4.49H44.76c.327 2.529 2.488 4.49 5.103 4.49 2.617 0 4.78-1.96 5.109-4.49h6.354a.956.956 0 0 0 .955-.956V32.995a.956.956 0 0 0-.956-.955Zm-44.72 17.583a3.25 3.25 0 0 1-3.247-3.246 3.25 3.25 0 0 1 3.247-3.248 3.247 3.247 0 0 1 0 6.494Zm0-8.403a5.16 5.16 0 0 0-4.998 3.913H4.234V14.88h33.21V45.132H21.597c-.557-2.243-2.581-3.912-4.992-3.912Zm33.258 8.403a3.248 3.248 0 0 1-3.242-3.246 3.248 3.248 0 0 1 3.242-3.248 3.25 3.25 0 0 1 3.246 3.248 3.251 3.251 0 0 1-3.246 3.246Zm10.507-4.49h-5.51c-.558-2.244-2.584-3.914-4.997-3.914-2.412 0-4.437 1.67-4.995 3.913h-5.514V24.403h14.96v8.592c0 .527.427.955.955.955h5.101v11.182Z" fill="#F4F4F6"/></svg><svg viewBox="0 0 61 60" fill="none" id="icon__cart" xmlns="http://www.w3.org/2000/svg"><path d="M56.797 10.98a.895.895 0 0 0-.68-.312H13.798l-1.726-5.783a.898.898 0 0 0-.86-.64H4.595a.896.896 0 1 0 0 1.794h5.95l10.902 36.533.006.012 1.354 4.606a4.672 4.672 0 0 0-1.385 3.323 4.7 4.7 0 0 0 4.693 4.695c2.504 0 4.549-1.978 4.675-4.455h11.754c0 .033-.005.065-.005.099a4.696 4.696 0 0 0 4.69 4.69 4.696 4.696 0 0 0 4.69-4.69 4.697 4.697 0 0 0-4.69-4.691 4.693 4.693 0 0 0-4.287 2.798H30.534a4.666 4.666 0 0 0-1.105-1.762 4.656 4.656 0 0 0-3.313-1.374c-.616 0-1.203.122-1.741.339l-.867-2.95h27.905c.443 0 .82-.323.886-.76L57.003 11.7a.896.896 0 0 0-.206-.72Zm-9.568 36.975a2.9 2.9 0 0 1 2.897 2.897 2.9 2.9 0 0 1-2.897 2.898 2.9 2.9 0 0 1-2.896-2.898 2.9 2.9 0 0 1 2.896-2.897Zm-21.114-.337a2.87 2.87 0 0 1 2.045.848 2.9 2.9 0 0 1-2.046 4.95 2.903 2.903 0 0 1-2.899-2.902 2.902 2.902 0 0 1 2.9-2.896Zm24.527-6.199H22.98l-1.696-5.768a.894.894 0 0 0-.09-.202l-6.86-22.987H55.07l-4.429 28.957Z" fill="#fff"/></svg><svg viewBox="0 -960 960 960" fill="#5f6368" id="icon__clear" xmlns="http://www.w3.org/2000/svg"><path d="m256-200-56-56 224-224-224-224 56-56 224 224 224-224 56 56-224 224 224 224-56 56-224-224-224 224Z"/></svg><svg viewBox="0 0 65 65" fill="none" id="icon__house" xmlns="http://www.w3.org/2000/svg"><path d="M56.464 20.872 33.02 3.762a.95.95 0 0 0-1.128 0L9.079 20.873a.951.951 0 0 0-.38.76v32.95a.95.95 0 0 0 .95.957h46.258a.95.95 0 0 0 .95-.95v-32.95a.951.951 0 0 0-.393-.767Zm-8.478 20.727H37.847v-9.505h10.139v9.505Zm-12.04 12.04h-9.505v-10.14h9.505v10.14Zm1.901-10.14h10.139v10.14H37.847v-10.14Zm10.139-13.306h-11.09a.95.95 0 0 0-.95.95V41.6H25.491a.95.95 0 0 0-.95.95v11.09h-6.338V25.756h29.783v4.436Zm6.97 23.445h-5.07V24.807a.95.95 0 0 0-.95-.95H17.253a.95.95 0 0 0-.95.95v28.831H10.6V22.114l21.867-16.4L54.956 22.12v31.518Z" fill="#F4F4F6"/></svg><svg fill="none" viewBox="0 0 34 33" id="icon__location" xmlns="http://www.w3.org/2000/svg"><g clip-path="url(#fa)" fill="#A4A7E2" fill-opacity=".4"><path d="M30.812 15.918V6.292a.683.683 0 0 0-.495-.656l-9.552-2.728a.686.686 0 0 0-.375 0l-9.365 2.675L1.66 2.908a.684.684 0 0 0-.87.656v20.461c0 .305.203.573.496.657l9.552 2.728a.69.69 0 0 0 .375 0l9.365-2.675 4.253 1.215a50.092 50.092 0 0 0 2.71 3.947.682.682 0 0 0 1.084 0c.503-.657 4.916-6.494 4.916-9.282 0-2.01-1.105-3.75-2.729-4.697Zm-20.469 9.931-8.188-2.338V4.468l8.188 2.338V25.85Zm9.552-2.338-8.187 2.338V6.807l8.187-2.339v19.043Zm1.365 0V4.468l8.188 2.338v8.547a5.396 5.396 0 0 0-1.365-.194 5.464 5.464 0 0 0-5.458 5.456c0 .963.53 2.29 1.24 3.64l-2.605-.744Zm6.823 4.83c-1.5-2.064-4.094-5.99-4.094-7.726a4.097 4.097 0 0 1 4.094-4.092 4.098 4.098 0 0 1 4.094 4.092c0 1.737-2.594 5.662-4.094 7.725Z"/><path d="M28.083 19.251c-.752 0-1.365.612-1.365 1.364 0 .752.613 1.364 1.365 1.364s1.365-.612 1.365-1.364c0-.752-.613-1.364-1.365-1.364Zm0 1.364v-.001l.682.001h-.681Z"/></g><defs><clipPath id="fa"><path fill="#fff" transform="translate(.79 .154)" d="M0 0h32.751v32.738H0z"/></clipPath></defs></svg><svg fill="none" viewBox="0 0 25 25" id="icon__location-footer" xmlns="http://www.w3.org/2000/svg"><g clip-path="url(#ea)" fill="#D7DCE7" fill-opacity=".4"><path d="M12.46.915C7.809.915 4.024 4.7 4.024 9.353a8.42 8.42 0 0 0 1.26 4.436l6.698 10.794a.703.703 0 0 0 .597.332h.006a.703.703 0 0 0 .597-.342l6.527-10.898a8.428 8.428 0 0 0 1.19-4.322c0-4.653-3.785-8.438-8.437-8.438Zm6.041 12.038-5.934 9.908-6.089-9.813A7.022 7.022 0 0 1 5.42 9.353c0-3.877 3.164-7.041 7.04-7.041 3.878 0 7.037 3.164 7.037 7.04a7.025 7.025 0 0 1-.995 3.601Z"/><path d="M12.46 5.134a4.224 4.224 0 0 0-4.218 4.219 4.213 4.213 0 0 0 4.219 4.218 4.21 4.21 0 0 0 4.219-4.218 4.224 4.224 0 0 0-4.22-4.22Zm0 7.04a2.824 2.824 0 0 1-2.82-2.821 2.832 2.832 0 0 1 2.82-2.822 2.828 2.828 0 0 1 2.818 2.822 2.819 2.819 0 0 1-2.817 2.821Z"/></g><defs><clipPath id="ea"><path fill="#fff" transform="translate(.46 .915)" d="M0 0h24v24H0z"/></clipPath></defs></svg><svg viewBox="0 0 65 65" fill="none" id="icon__puzzle" xmlns="http://www.w3.org/2000/svg"><path d="M56.169 29.718a.956.956 0 0 0-.208-1.336l-9.881-7.224-.042-.03c-.516-.887-.675-1.681-.403-2.052.253-.345.998-.448 1.928-.27.096.043.203.07.315.078 1.272.096 2.29-.282 2.866-1.066.683-.933.629-2.246-.152-3.696-.662-1.23-1.803-2.474-3.21-3.503-2.085-1.524-4.404-2.309-6.056-2.053-.788.123-1.42.481-1.82 1.03-.49.667-.6 1.561-.324 2.55a.96.96 0 0 0 .142.556c.585.947.778 1.811.49 2.203-.252.346-.995.447-1.917.27l-10.042-7.34a.955.955 0 0 0-1.337.208l-7.46 10.207a.954.954 0 0 0-.16.354c-.415 1.833-.063 3.317.97 4.072 1.034.753 2.543.638 4.162-.308h.003c.51-.195.941-.218 1.154-.06.288.21.377.866.226 1.67-.203 1.082-.809 2.371-1.662 3.538-1.382 1.892-2.951 2.887-3.893 3.033-.193.03-.46.04-.628-.084-.206-.15-.313-.521-.3-1.029.408-1.84.061-3.27-.978-4.03-1.074-.781-2.655-.63-4.338.411a.949.949 0 0 0-.27.25l-7.37 10.086a.958.958 0 0 0 .209 1.336l10.209 7.462a.97.97 0 0 0 .354.161c1.861.417 3.308.074 4.07-.968.74-1.01.646-2.478-.248-4.062a1.112 1.112 0 0 0-.037-.125c-.18-.49-.196-.892-.042-1.102.45-.616 2.756-.357 5.208 1.435 2.45 1.792 3.394 3.91 2.947 4.522-.143.193-.476.3-.933.301a.862.862 0 0 0-.098-.028c-1.83-.41-3.316-.057-4.07.974-.788 1.083-.642 2.623.412 4.336.065.106.15.198.25.27l10.085 7.37a.956.956 0 0 0 1.337-.208l7.29-9.972c.886-.514 1.68-.672 2.048-.402.312.228.62 1.184.382 2.334a.914.914 0 0 0-.04.236c-.07 1.552.545 2.339 1.077 2.728 1.764 1.285 4.857-.16 7.195-3.362 2.344-3.207 2.783-6.595 1.02-7.884-.515-.372-1.419-.715-2.803-.238a.958.958 0 0 0-.191.09c-1.051.65-2.095.55-2.467.28-.346-.254-.449-.996-.274-1.922l7.305-9.997Zm-8.16 13.464c1.13.823 2.965.765 4.498-.136.284-.087.716-.173.965.006.615.45.354 2.755-1.438 5.208-1.79 2.448-3.905 3.397-4.523 2.947-.199-.146-.305-.51-.296-1.004.375-1.774-.08-3.532-1.12-4.293-1.069-.783-2.651-.634-4.34.412a.952.952 0 0 0-.269.25l-6.84 9.355-9.155-6.69c-.512-.888-.67-1.682-.404-2.049.25-.34.971-.446 1.874-.282a.956.956 0 0 0 .382.109c1.26.086 2.272-.293 2.844-1.07 1.287-1.76-.158-4.854-3.361-7.199-3.207-2.34-6.595-2.78-7.883-1.019-.494.678-.6 1.586-.309 2.585 0 .175.05.349.143.5.585.949.78 1.814.495 2.203-.253.345-.995.446-1.918.27l-9.27-6.776 6.69-9.158c.885-.512 1.678-.67 2.05-.4.356.26.452 1.042.252 2.005a.962.962 0 0 0-.052.26c-.091 1.59.534 2.396 1.075 2.792.553.405 1.263.555 2.052.432 1.651-.257 3.623-1.711 5.145-3.796 1.03-1.408 1.74-2.94 1.998-4.313.304-1.618-.044-2.886-.973-3.564-.71-.526-1.684-.617-2.759-.262a.955.955 0 0 0-.367.133c-.945.584-1.81.776-2.2.493-.345-.253-.446-.995-.269-1.918l6.773-9.268 9.437 6.897a.951.951 0 0 0 .353.16c1.86.422 3.308.078 4.07-.967.733-1 .652-2.447-.214-4.011a1.05 1.05 0 0 0-.046-.173c-.186-.502-.204-.91-.048-1.124.124-.17.379-.24.572-.27.941-.146 2.738.324 4.631 1.707 1.166.852 2.134 1.897 2.655 2.866.389.72.504 1.372.295 1.657-.15.204-.523.309-1.002.3-.013-.004-.028-.008-.041-.01-1.864-.416-3.308-.07-4.069.97-.784 1.07-.634 2.652.412 4.34.064.102.145.19.242.262l9.315 6.814-6.866 9.391a.949.949 0 0 0-.161.356c-.416 1.86-.07 3.307.974 4.072Z" fill="#F4F4F6"/></svg></svg>