<?xml version="1.0" encoding="utf-8"?><svg viewBox="0 0 61 60" xmlns="http://www.w3.org/2000/svg" xmlns:xlink="http://www.w3.org/1999/xlink"><style>:root>svg{display:none}:root>svg:target{display:block}</style><svg viewBox="0 0 61 60" fill="none" id="icon__cart" xmlns="http://www.w3.org/2000/svg">
    <path d="M56.797 10.98a.895.895 0 0 0-.68-.312H13.798l-1.726-5.783a.898.898 0 0 0-.86-.64H4.595a.896.896 0 1 0 0 1.794h5.95l10.902 36.533.006.012 1.354 4.606a4.672 4.672 0 0 0-1.385 3.323 4.7 4.7 0 0 0 4.693 4.695c2.504 0 4.549-1.978 4.675-4.455h11.754c0 .033-.005.065-.005.099a4.696 4.696 0 0 0 4.69 4.69 4.696 4.696 0 0 0 4.69-4.69 4.697 4.697 0 0 0-4.69-4.691 4.693 4.693 0 0 0-4.287 2.798H30.534a4.666 4.666 0 0 0-1.105-1.762 4.656 4.656 0 0 0-3.313-1.374c-.616 0-1.203.122-1.741.339l-.867-2.95h27.905c.443 0 .82-.323.886-.76L57.003 11.7a.896.896 0 0 0-.206-.72Zm-9.568 36.975a2.9 2.9 0 0 1 2.897 2.897 2.9 2.9 0 0 1-2.897 2.898 2.9 2.9 0 0 1-2.896-2.898 2.9 2.9 0 0 1 2.896-2.897Zm-21.114-.337a2.87 2.87 0 0 1 2.045.848 2.9 2.9 0 0 1-2.046 4.95 2.903 2.903 0 0 1-2.899-2.902 2.902 2.902 0 0 1 2.9-2.896Zm24.527-6.199H22.98l-1.696-5.768a.894.894 0 0 0-.09-.202l-6.86-22.987H55.07l-4.429 28.957Z" fill="#fff"/>
</svg><svg viewBox="0 -960 960 960" fill="#5f6368" id="icon__clear" xmlns="http://www.w3.org/2000/svg">
    <path d="m256-200-56-56 224-224-224-224 56-56 224 224 224-224 56 56-224 224 224 224-56 56-224-224-224 224Z"/>
</svg><svg fill="none" viewBox="0 0 34 33" id="icon__location" xmlns="http://www.w3.org/2000/svg">
    <g clip-path="url(#ca)" fill="#A4A7E2" fill-opacity=".4">
        <path d="M30.812 15.918V6.292a.683.683 0 0 0-.495-.656l-9.552-2.728a.686.686 0 0 0-.375 0l-9.365 2.675L1.66 2.908a.684.684 0 0 0-.87.656v20.461c0 .305.203.573.496.657l9.552 2.728a.69.69 0 0 0 .375 0l9.365-2.675 4.253 1.215a50.092 50.092 0 0 0 2.71 3.947.682.682 0 0 0 1.084 0c.503-.657 4.916-6.494 4.916-9.282 0-2.01-1.105-3.75-2.729-4.697Zm-20.469 9.931-8.188-2.338V4.468l8.188 2.338V25.85Zm9.552-2.338-8.187 2.338V6.807l8.187-2.339v19.043Zm1.365 0V4.468l8.188 2.338v8.547a5.396 5.396 0 0 0-1.365-.194 5.464 5.464 0 0 0-5.458 5.456c0 .963.53 2.29 1.24 3.64l-2.605-.744Zm6.823 4.83c-1.5-2.064-4.094-5.99-4.094-7.726a4.097 4.097 0 0 1 4.094-4.092 4.098 4.098 0 0 1 4.094 4.092c0 1.737-2.594 5.662-4.094 7.725Z"/>
        <path d="M28.083 19.251c-.752 0-1.365.612-1.365 1.364 0 .752.613 1.364 1.365 1.364s1.365-.612 1.365-1.364c0-.752-.613-1.364-1.365-1.364Zm0 1.364v-.001l.682.001h-.681Z"/>
    </g>
    <defs>
        <clipPath id="ca">
            <path fill="#fff" transform="translate(.79 .154)" d="M0 0h32.751v32.738H0z"/>
        </clipPath>
    </defs>
</svg></svg>