<?xml version="1.0" encoding="utf-8"?><svg viewBox="0 0 61 60" xmlns="http://www.w3.org/2000/svg" xmlns:xlink="http://www.w3.org/1999/xlink"><style>:root>svg{display:none}:root>svg:target{display:block}</style><svg viewBox="0 -960 960 960" fill="#5f6368" id="icon__clear" xmlns="http://www.w3.org/2000/svg">
    <path d="m256-200-56-56 224-224-224-224 56-56 224 224 224-224 56 56-224 224 224 224-56 56-224-224-224 224Z"/>
</svg><svg viewBox="0 0 61 60" fill="none" id="icon__test" xmlns="http://www.w3.org/2000/svg">
    <path d="M56.797 10.98a.895.895 0 0 0-.68-.312H13.798l-1.726-5.783a.898.898 0 0 0-.86-.64H4.595a.896.896 0 1 0 0 1.794h5.95l10.902 36.533.006.012 1.354 4.606a4.672 4.672 0 0 0-1.385 3.323 4.7 4.7 0 0 0 4.693 4.695c2.504 0 4.549-1.978 4.675-4.455h11.754c0 .033-.005.065-.005.099a4.696 4.696 0 0 0 4.69 4.69 4.696 4.696 0 0 0 4.69-4.69 4.697 4.697 0 0 0-4.69-4.691 4.693 4.693 0 0 0-4.287 2.798H30.534a4.666 4.666 0 0 0-1.105-1.762 4.656 4.656 0 0 0-3.313-1.374c-.616 0-1.203.122-1.741.339l-.867-2.95h27.905c.443 0 .82-.323.886-.76L57.003 11.7a.896.896 0 0 0-.206-.72Zm-9.568 36.975a2.9 2.9 0 0 1 2.897 2.897 2.9 2.9 0 0 1-2.897 2.898 2.9 2.9 0 0 1-2.896-2.898 2.9 2.9 0 0 1 2.896-2.897Zm-21.114-.337a2.87 2.87 0 0 1 2.045.848 2.9 2.9 0 0 1-2.046 4.95 2.903 2.903 0 0 1-2.899-2.902 2.902 2.902 0 0 1 2.9-2.896Zm24.527-6.199H22.98l-1.696-5.768a.894.894 0 0 0-.09-.202l-6.86-22.987H55.07l-4.429 28.957Z" fill="#fff"/>
</svg></svg>